<?xml version="1.0" encoding="utf-8"?>
<!-- Generator: Adobe Illustrator 24.0.2, SVG Export Plug-In . SVG Version: 6.00 Build 0)  -->
<svg version="1.1" id="Capa_1" xmlns="http://www.w3.org/2000/svg" xmlns:xlink="http://www.w3.org/1999/xlink" x="0px" y="0px"
	 viewBox="0 0 50.5 64" style="enable-background:new 0 0 50.5 64;" xml:space="preserve">
<style type="text/css">
	.st0{clip-path:url(#SVGID_2_);}
	.st1{fill:#FE8CFD;}
	.st2{fill:#FDC2FF;}
	.st3{opacity:0.1;fill:#BF360C;enable-background:new    ;}
	.st4{opacity:0.1;fill:#FFFFFF;enable-background:new    ;}
</style>
<g>
	<defs>
		<path id="SVGID_1_" d="M48.3,12.6L27.5,0.6c-1.4-0.8-3-0.8-4.4,0L2.2,12.6C0.8,13.4,0,14.9,0,16.4v24.1c0,1.6,0.8,3,2.2,3.8
			l10.4,6v12.3c0,0.7,0.6,1.3,1.3,1.3c0.2,0,0.4-0.1,0.6-0.2l33.8-19.5c1.3-0.8,2.2-2.2,2.2-3.8V16.4C50.5,14.9,49.7,13.4,48.3,12.6
			z"/>
	</defs>
	<clipPath id="SVGID_2_">
		<use xlink:href="#SVGID_1_"  style="overflow:visible;"/>
	</clipPath>
	<g class="st0">
		<polygon class="st1" points="0,13.9 0,43.1 12.6,50.4 12.6,64.9 50.5,43.1 50.5,13.9 25.3,28.5 		"/>
		<polygon class="st2" points="0,13.9 25.3,-0.7 50.5,13.9 25.3,28.5 		"/>
		<polygon class="st3" points="49.9,13.6 24.8,28 0.2,13.8 0,13.9 25.3,28.5 50.5,13.9 		"/>
		<polygon class="st4" points="25.3,28.5 0.2,14 0,14.1 25.3,28.7 		"/>
	</g>
</g>
</svg>
