<?xml version="1.0" encoding="utf-8"?>
<!-- Generator: Adobe Illustrator 24.0.2, SVG Export Plug-In . SVG Version: 6.00 Build 0)  -->
<svg version="1.1" id="Capa_1" xmlns="http://www.w3.org/2000/svg" xmlns:xlink="http://www.w3.org/1999/xlink" x="0px" y="0px"
	 viewBox="0 0 936 331" style="enable-background:new 0 0 936 331;" xml:space="preserve">
<style type="text/css">
	.st0{fill-rule:evenodd;clip-rule:evenodd;fill:#FE8CFD;}
</style>
<g>
	<path class="st0" d="M55.1,161.5c-0.2,30.5,22.2,48.7,57.9,40.4v-80.9C76.8,110.1,55.2,132.4,55.1,161.5 M114.1,4.2h49.2v232.7
		c-47.1,7.7-92.3,12.6-124.6-5.5c-41.6-23.2-44.9-97.1-12-130C43.4,84.7,76.9,73,113,80.7V7.5C112.9,5.9,112.8,4.4,114.1,4.2
		 M243,55.5h-49.2V4.2H243L243,55.5z M833,204.1c53.6,20.8,59.5-95.9,5.5-85.2C804.9,125.6,806,193.6,833,204.1 M835.2,78.5
		c40.9-4.4,71.8,13.7,84.1,41.5c21,47.5-1.2,102-35,118c-17.5,8.3-35.9,9.1-52.4,7.6c-51.2-4.5-83.5-56.7-65.6-114.7
		c2.8-9.1,6-14.6,7.6-17.5C785.2,94.5,804,81.8,835.2,78.5 M310.8,185.6c-13.6,22.9,20.6,28.3,42.6,21.9v-33.9
		C336.4,175.9,317.2,174.8,310.8,185.6 M397.1,239.1c-40.6,2.3-102.3,16.2-124.6-10.9c-13.1-15.9-11.6-46.3,0-61.2
		c15.1-19.2,47.9-23.4,77.6-26.2c2.7-6.6,0.9-17.4-2.2-21.9c-27.1-6.9-54.1,3.8-73.2,12V92.7c28.9-13.3,95.8-27.2,115.8,3.3
		c10.5,16,6.6,44,6.6,68.8V239.1z M569.7,241.3h-49.2v-63.4c0-20.9,3.4-47.3-7.7-55.7c-8.6-6.6-29.1-3.3-41.5,0v119.1h-49.2V89.4
		c50.3-13.1,141-27.1,147.5,36.1C572.9,156.6,567.3,203.3,569.7,241.3 M642.9,188.8c8.3,13.4,30.7,18.4,49.2,9.8
		c-1-25.6-1.4-51.8-1.1-78.7C648.5,108.8,623.2,156.9,642.9,188.8 M766.4,85c-4.4,13.1-10.8,24.2-16.4,36.1c-5.1,1.1-9.5-2-12,0
		c-1.1,53.3,11.3,125.5-9.8,163.9c-12.8,23.1-36.2,38-72.1,40.4c-26.1,1.8-46.4-2.5-65.6-9.8v-45.9c22.4,13.1,79.1,23.8,95.1-3.3
		c4.7-8,4.4-16.2,6.6-28.4c-10.3,0.5-20.2,5.3-32.8,5.5c-51.5,0.7-83.4-40.3-71-97.2c4.8-22,17.7-39.7,35-50.3
		C659.1,74.1,714.3,75.8,766.4,85"/>
	<path class="st0" d="M243,81.5c-0.1,36.2,0,62.2-0.1,106.2c-2.1,43.2-1.6,77.6-17.4,98.3c-3.1,4.1-9.8,10-15.3,14.2
		c-4.7,3.5-13.5,10.6-18.6,10.9c-5.1,0.3-18.1-7.1-24-9.8c-7.8-3.7-14.9-8.5-22.9-10.9c18.7-11.6,36.5-20.3,43.7-43.7
		c6.3-20.4,5.5-49.9,5.5-78.7c0-28.4,0.1-61.4,0.1-86.5L243,81.5L243,81.5z"/>
</g>
</svg>
