<?xml version="1.0" encoding="utf-8"?>
<!-- Generator: Adobe Illustrator 24.0.2, SVG Export Plug-In . SVG Version: 6.00 Build 0)  -->
<svg version="1.1" id="Capa_1" xmlns="http://www.w3.org/2000/svg" xmlns:xlink="http://www.w3.org/1999/xlink" x="0px" y="0px"
	 viewBox="0 0 96.2 132" style="enable-background:new 0 0 96.2 132;" xml:space="preserve">
<style type="text/css">
	.st0{fill:#FE8CFD;}
	.st1{fill:#FB7DFF;}
	.st2{fill:#FDC2FF;}
	.st3{fill:#FFFFFF;fill-opacity:0.2;}
	.st4{opacity:0.2;fill:#8B148E;enable-background:new    ;}
	.st5{fill:url(#b_1_);}
</style>
<path class="st0" d="M0.8,105.7L17,2.5c0.2-1.3,1.2-2.3,2.4-2.5s2.5,0.4,3.1,1.5l16.7,31.1L45.9,20c0.5-1,1.5-1.6,2.6-1.6
	s2.1,0.6,2.6,1.6l45,85.7L0.8,105.7L0.8,105.7z"/>
<path class="st1" d="M56.6,65.5L39.2,32.6L0.8,105.7L56.6,65.5z"/>
<path class="st2" d="M96.2,105.7L83.8,29.3c-0.2-1.1-1-2-2-2.3s-2.2-0.1-3,0.7L0.8,105.7L44,129.9c2.7,1.5,6,1.5,8.7,0L96.2,105.7
	L96.2,105.7z"/>
<path class="st3" d="M83.8,29.3c-0.2-1.1-1-2-2-2.3s-2.2-0.1-3,0.7L63.3,43.2L51.1,20c-0.5-1-1.5-1.6-2.6-1.6S46.4,19,45.9,20
	l-6.7,12.7L22.5,1.5c-0.6-1.1-1.9-1.7-3.1-1.5S17.2,1.2,17,2.5L0.8,105.7H0.8l0.1,0.1l0.4,0.2l77.5-77.6c0.8-0.8,2-1.1,3-0.7
	s1.8,1.2,2,2.3L96,105.8l0.1-0.1L83.8,29.3L83.8,29.3z M1,105.6L17,3.2C17.2,2,18.1,1,19.4,0.7s2.5,0.4,3.1,1.5l16.7,31.1l6.7-12.7
	c0.5-1,1.5-1.6,2.6-1.6s2.1,0.6,2.6,1.6l11.9,22.7L1,105.6L1,105.6z"/>
<path class="st4" d="M52.7,129.2c-2.7,1.5-6,1.5-8.7,0l-43-24.1l-0.1,0.7L44,129.9c2.7,1.5,6,1.5,8.7,0l43.5-24.2l-0.1-0.7
	L52.7,129.2L52.7,129.2z"/>
<g>
	
		<linearGradient id="b_1_" gradientUnits="userSpaceOnUse" x1="-717.6498" y1="603.2692" x2="-716.6066" y2="602.5104" gradientTransform="matrix(95 0 0 -130.9998 68174 79049.8984)">
		<stop  offset="0" style="stop-color:#FFFFFF;stop-opacity:0.1"/>
		<stop  offset="0.14" style="stop-color:#FFFFFF;stop-opacity:8.000000e-02"/>
		<stop  offset="0.61" style="stop-color:#FFFFFF;stop-opacity:2.000000e-02"/>
		<stop  offset="1" style="stop-color:#FFFFFF;stop-opacity:0"/>
	</linearGradient>
	<path id="b" class="st5" d="M83.3,28.7c-0.2-1.1-1-2-2-2.3c-1.1-0.3-2.2-0.1-3,0.7L62.8,42.6L50.7,19.5c-0.5-1-1.5-1.6-2.6-1.6
		s-2.1,0.6-2.6,1.6l-6.6,12.7L22.2,1c-0.6-1.1-1.9-1.7-3.1-1.5S16.8,0.7,16.7,2L0.6,105.1l43,24.2c2.7,1.5,6,1.5,8.7,0l43.3-24.2
		L83.3,28.7L83.3,28.7z"/>
</g>
</svg>
