<svg xmlns="http://www.w3.org/2000/svg" viewBox="0 0 207 125" fill="rgba(254, 140, 253, 1)"><path fill-rule="evenodd" clip-rule="evenodd" d="M91.3912 32.632H95.5306L113.874 58.096L132.623 32.632L158.124 0.286804L116.228 60.7722L137.817 90.5343H133.516L113.874 63.4484L94.1508 90.5343H89.9302L111.682 60.7722L91.3912 32.632ZM48.9421 32.632H87.9011V35.7136H52.5134V58.907H85.7908V61.9886H52.5134V87.4527H88.3069V90.5343H48.9421V32.632ZM139.359 32.632V35.7136L159.732 35.7136V90.5343H163.303V35.7136H183.756V32.632H139.359Z"></path><path d="M0.202881 32.632H4.66693L66.2235 124.303L40.7851 90.5343L3.93645 37.0112L3.77412 90.5343H0.202881V32.632Z"></path><path fill-rule="evenodd" clip-rule="evenodd" d="M201.933 86.6785C199.153 86.6785 197.286 85.2503 197.147 83.0172H199.075C199.24 84.203 200.404 84.9561 202.08 84.9561C203.644 84.9561 204.791 84.1511 204.791 83.0432C204.791 82.091 204.061 81.5198 202.402 81.1303L200.786 80.7408C198.519 80.2128 197.486 79.1222 197.486 77.2872C197.486 75.0627 199.31 73.5826 202.046 73.5826C204.591 73.5826 206.45 75.0627 206.562 77.166H204.669C204.486 76.0148 203.479 75.2964 202.02 75.2964C200.482 75.2964 199.457 76.0321 199.457 77.1573C199.457 78.0489 200.117 78.5596 201.75 78.9404L203.131 79.278C205.703 79.8752 206.762 80.9139 206.762 82.7921C206.762 85.1811 204.903 86.6785 201.933 86.6785ZM186.906 83.1297C186.906 85.2763 188.461 86.6785 190.728 86.6785C193.142 86.6785 194.602 85.233 194.602 82.7229V73.8855H192.656V82.7142C192.656 84.1078 191.952 84.8522 190.71 84.8522C189.599 84.8522 188.843 84.1597 188.817 83.1297H186.906ZM183.397 86.5227C184.135 86.5227 184.674 85.9601 184.674 85.233C184.674 84.506 184.135 83.9433 183.397 83.9433C182.667 83.9433 182.12 84.506 182.12 85.233C182.12 85.9601 182.667 86.5227 183.397 86.5227Z"></path></svg>