<svg width="1666" height="1554" viewBox="0 0 1666 1554" fill="none" xmlns="http://www.w3.org/2000/svg">
<path d="M678 1081.5L642.995 952.784C635.798 926.32 608.625 910.592 582.092 917.534L253.5 1003.5" stroke="#956FFF" stroke-width="3" stroke-dasharray="3 10"/>
<path d="M677 1080.5L705.734 1182.09C713.114 1208.19 739.953 1223.64 766.228 1216.93L1032 1149" stroke="#956FFF" stroke-width="3" stroke-dasharray="3 10"/>
<g filter="url(#filter0_f)">
<rect x="885.541" y="988.933" width="262.46" height="283.505" rx="40" transform="rotate(-15 885.541 988.933)" fill="#99B0C2" fill-opacity="0.38"/>
</g>
<rect x="886.365" y="974.541" width="278.223" height="284.688" rx="40" transform="rotate(-15 886.365 974.541)" fill="white"/>
<rect x="924.78" y="997.312" width="215.798" height="138.525" rx="20" transform="rotate(-15 924.78 997.312)" fill="#D9F9FF"/>
<circle cx="1051.39" cy="1040.13" r="26.923" transform="rotate(-15 1051.39 1040.13)" fill="#30C9E5"/>
<circle cx="1051.39" cy="1040.13" r="24.923" transform="rotate(-15 1051.39 1040.13)" stroke="black" stroke-opacity="0.2" stroke-width="4"/>
<path d="M1057.62 1038.56L1049.8 1046.38L1046.94 1035.7L1057.62 1038.56Z" fill="white"/>
<rect x="1024.11" y="1145.2" width="124" height="10" rx="3" transform="rotate(-15 1024.11 1145.2)" fill="#D8E1EA"/>
<rect x="1029.29" y="1164.52" width="81" height="10" rx="3" transform="rotate(-15 1029.29 1164.52)" fill="#D8E1EA"/>
<mask id="mask0" mask-type="alpha" maskUnits="userSpaceOnUse" x="971" y="1143" width="49" height="49">
<path d="M1000.44 1186.16C1010.79 1183.39 1016.94 1172.74 1014.16 1162.39C1011.39 1152.03 1000.74 1145.89 990.387 1148.66C980.032 1151.44 973.887 1162.08 976.662 1172.43C979.436 1182.79 990.08 1188.94 1000.44 1186.16Z" fill="white"/>
</mask>
<g mask="url(#mask0)">
<path d="M1000.44 1186.16C1010.79 1183.39 1016.94 1172.74 1014.16 1162.39C1011.39 1152.03 1000.74 1145.89 990.387 1148.66C980.032 1151.44 973.887 1162.08 976.662 1172.43C979.436 1182.79 990.08 1188.94 1000.44 1186.16Z" fill="#AAE1E5"/>
<path fill-rule="evenodd" clip-rule="evenodd" d="M993.273 1180.72L1003.53 1179.15L1004.22 1180.82L998.751 1183.83L992.609 1182.08L993.273 1180.72Z" fill="#CAD5D8"/>
<path fill-rule="evenodd" clip-rule="evenodd" d="M1001.19 1190.74C998.886 1191.36 996.493 1189.98 995.876 1187.68L993.53 1178.93C992.913 1176.62 994.296 1174.23 996.604 1173.62C998.912 1173 1001.3 1174.38 1001.92 1176.68L1004.27 1185.43C1004.88 1187.74 1003.5 1190.13 1001.19 1190.74Z" fill="#E39E8F"/>
<path fill-rule="evenodd" clip-rule="evenodd" d="M1000.14 1178.88L996.171 1179.94C993.03 1180.79 989.774 1178.91 988.934 1175.78L986.407 1166.35C985.568 1163.22 987.45 1159.96 990.591 1159.12L994.565 1158.06C997.706 1157.21 1000.96 1159.09 1001.8 1162.22L1004.33 1171.65C1005.17 1174.79 1003.29 1178.04 1000.14 1178.88Z" fill="#F9BFB2"/>
<path fill-rule="evenodd" clip-rule="evenodd" d="M996.934 1173.75L996.363 1173.9C995.902 1174.02 995.425 1173.74 995.303 1173.28L994.81 1171.43C994.688 1170.97 994.965 1170.5 995.426 1170.37L995.997 1170.22C996.458 1170.1 996.936 1170.38 997.058 1170.84L997.55 1172.69C997.673 1173.15 997.396 1173.62 996.934 1173.75Z" fill="#E39E8F"/>
<path fill-rule="evenodd" clip-rule="evenodd" d="M997.667 1172.87L995.29 1173.5C995.149 1173.54 995.003 1173.45 994.965 1173.31L994.931 1173.18C994.894 1173.04 994.978 1172.89 995.12 1172.86L997.496 1172.22C997.637 1172.19 997.784 1172.27 997.821 1172.41L997.855 1172.54C997.893 1172.68 997.808 1172.83 997.667 1172.87Z" fill="#E39E8F"/>
<path fill-rule="evenodd" clip-rule="evenodd" d="M990.317 1169.91C990.232 1169.93 990.14 1169.93 990.052 1169.9C989.819 1169.81 989.697 1169.56 989.78 1169.32C990.264 1167.97 991.765 1167.25 993.125 1167.73C993.358 1167.82 993.48 1168.07 993.397 1168.3C993.314 1168.54 993.058 1168.66 992.824 1168.58C991.93 1168.26 990.943 1168.73 990.625 1169.62C990.573 1169.77 990.455 1169.87 990.317 1169.91Z" fill="#1D1F22"/>
<path fill-rule="evenodd" clip-rule="evenodd" d="M1000.18 1167.28C1000.05 1167.32 999.893 1167.29 999.776 1167.19C999.056 1166.57 997.966 1166.65 997.348 1167.37C997.187 1167.56 996.903 1167.58 996.715 1167.42C996.527 1167.26 996.506 1166.98 996.667 1166.79C997.609 1165.7 999.266 1165.57 1000.36 1166.51C1000.55 1166.67 1000.57 1166.95 1000.41 1167.14C1000.35 1167.21 1000.27 1167.26 1000.18 1167.28Z" fill="#1D1F22"/>
<path fill-rule="evenodd" clip-rule="evenodd" d="M993.093 1170.39C993.2 1170.79 992.963 1171.2 992.564 1171.3C992.165 1171.41 991.755 1171.17 991.649 1170.77C991.542 1170.38 991.779 1169.97 992.178 1169.86C992.577 1169.75 992.986 1169.99 993.093 1170.39Z" fill="#1D1F22"/>
<path fill-rule="evenodd" clip-rule="evenodd" d="M999.015 1168.8C999.122 1169.2 998.885 1169.61 998.486 1169.71C998.088 1169.82 997.678 1169.59 997.571 1169.19C997.464 1168.79 997.701 1168.38 998.1 1168.27C998.499 1168.17 998.909 1168.4 999.015 1168.8Z" fill="#1D1F22"/>
<mask id="mask1" mask-type="alpha" maskUnits="userSpaceOnUse" x="982" y="1149" width="26" height="24">
<path d="M982.431 1155.12L1002.87 1149.65L1007.42 1166.63L986.983 1172.11L982.431 1155.12Z" fill="white"/>
</mask>
<g mask="url(#mask1)">
<path fill-rule="evenodd" clip-rule="evenodd" d="M1004.47 1155.63C1003.59 1152.33 1000.25 1150.35 997.028 1151.21C996.865 1151.25 996.708 1151.31 996.552 1151.36C997.349 1151.85 998.037 1152.53 998.554 1153.35C997.538 1152.83 996.35 1152.67 995.178 1152.99C995.048 1153.02 994.923 1153.07 994.798 1153.11C995.405 1153.49 995.932 1154 996.338 1154.61L993.381 1155.4L993.392 1155.41C993.314 1155.42 993.237 1155.43 993.159 1155.46L990.24 1156.24C986.386 1157.27 984.1 1161.35 985.159 1165.3L986.983 1172.11L987.687 1170.07C987.687 1170.07 985.744 1165.3 990.231 1164.1C994.902 1162.84 994.191 1163.98 998.862 1162.72L1001.13 1162.12L1002.14 1165.89L1003.68 1166.71L1002.37 1161.8C1004.18 1160.32 1005.13 1158.09 1004.47 1155.63Z" fill="#1D1F22"/>
</g>
<path fill-rule="evenodd" clip-rule="evenodd" d="M989.644 1173.26L989.321 1173.35C988.079 1173.68 986.79 1172.94 986.458 1171.7C986.126 1170.46 986.871 1169.18 988.113 1168.84L988.436 1168.76L989.644 1173.26Z" fill="#F9BFB2"/>
<path fill-rule="evenodd" clip-rule="evenodd" d="M1002.74 1169.76L1001.53 1165.25C1002.64 1164.95 1003.79 1165.61 1004.09 1166.72L1004.22 1167.21C1004.51 1168.31 1003.85 1169.46 1002.74 1169.76Z" fill="#F9BFB2"/>
<path fill-rule="evenodd" clip-rule="evenodd" d="M994.833 1175.66L999.092 1174.34C999.309 1174.27 999.522 1174.45 999.485 1174.68L999.485 1174.68C999.329 1175.6 998.719 1176.39 997.861 1176.77C996.887 1177.2 995.753 1177.04 994.936 1176.36L994.728 1176.19C994.542 1176.04 994.601 1175.74 994.833 1175.66Z" fill="white"/>
<path fill-rule="evenodd" clip-rule="evenodd" d="M997.175 1186.41L992.219 1182.88L993.273 1180.72L997.887 1183.11L997.175 1186.41Z" fill="#E6EBED"/>
<path fill-rule="evenodd" clip-rule="evenodd" d="M1001.61 1185.95L1004.42 1181.31L1003.53 1179.15L1000.32 1182.74L1001.61 1185.95Z" fill="#E6EBED"/>
<path fill-rule="evenodd" clip-rule="evenodd" d="M997.714 1184.11L999.751 1186.45L1001.25 1182.91L1004.71 1181.03C1004.71 1181.03 1009.91 1194.48 1009.62 1194.56C1009.34 1194.64 998.221 1196.43 998.221 1196.43L990.599 1183.73L997.714 1184.11Z" fill="white"/>
<path fill-rule="evenodd" clip-rule="evenodd" d="M1028.63 1207.8C1028.88 1209.33 1028.78 1210.88 1028.33 1212.36L1027.23 1215.97L1026.63 1217.94L1029.19 1224.36L1023.86 1228.88C1020.63 1231.62 1015.78 1232.88 1011.98 1231C1010.43 1234.43 1007.31 1236.92 1003.58 1237.67L995.519 1239.15L990.753 1219.55L987.635 1206.73L987.457 1206.93L982.44 1187.74C982.66 1187.48 982.89 1187.24 983.13 1187.01L983.891 1186.42C986.479 1184.4 989.443 1182.93 992.61 1182.08L1011.98 1231L1004.03 1180.13L1012.95 1181.66L1014.59 1182.01C1016.27 1182.33 1017.89 1182.89 1019.37 1183.76C1023.32 1186.09 1025.73 1189.98 1027.17 1199.13L1028.63 1207.8Z" fill="#1D1E1E"/>
</g>
<g style="mix-blend-mode:multiply" filter="url(#filter1_f)">
<rect x="52" y="959.765" width="361.872" height="562.084" rx="40" transform="rotate(-15 52 959.765)" fill="#99B0C2" fill-opacity="0.28"/>
</g>
<rect x="76.4679" y="939.211" width="356.313" height="552.104" rx="32" transform="rotate(-15 76.4679 939.211)" fill="white" stroke="white" stroke-width="16"/>
<rect x="100.67" y="952.192" width="316.124" height="235.411" rx="20" transform="rotate(-15 100.67 952.192)" fill="#EDFFF4"/>
<circle cx="283.814" cy="1025.34" r="46.6582" transform="rotate(-15 283.814 1025.34)" fill="#74E4A2"/>
<circle cx="283.814" cy="1025.34" r="44.6582" transform="rotate(-15 283.814 1025.34)" stroke="black" stroke-opacity="0.2" stroke-width="4"/>
<path d="M291.146 1023.67L281.113 1033.7L277.441 1020L291.146 1023.67Z" fill="white"/>
<rect x="226.618" y="1192.29" width="124" height="10" rx="3" transform="rotate(-15 226.618 1192.29)" fill="#D8E1EA"/>
<rect x="231.795" y="1211.6" width="81" height="10" rx="3" transform="rotate(-15 231.795 1211.6)" fill="#D8E1EA"/>
<mask id="mask2" mask-type="alpha" maskUnits="userSpaceOnUse" x="75" y="846" width="490" height="628">
<path d="M85.716 969.862C81.2848 953.324 91.0989 936.326 107.636 931.895L389.989 856.239C406.526 851.808 423.524 861.622 427.956 878.159L554.286 1349.63C558.717 1366.17 548.903 1383.17 532.366 1387.6L250.014 1463.25C233.476 1467.69 216.478 1457.87 212.047 1441.33L85.716 969.862Z" fill="white" stroke="#F9FBFC" stroke-width="18"/>
</mask>
<g mask="url(#mask2)">
<path d="M191.846 1296.33C188.987 1285.66 195.319 1274.69 205.988 1271.84L472.704 1200.37C483.373 1197.51 494.34 1203.84 497.199 1214.51L538.127 1367.26L232.774 1449.08L191.846 1296.33Z" fill="#FFF5CE"/>
<mask id="mask3" mask-type="alpha" maskUnits="userSpaceOnUse" x="191" y="1199" width="348" height="251">
<path d="M191.846 1296.33C188.987 1285.66 195.319 1274.69 205.988 1271.83L472.704 1200.37C483.373 1197.51 494.34 1203.84 497.199 1214.51L538.127 1367.26L232.774 1449.08L191.846 1296.33Z" fill="#FFF5CE"/>
</mask>
<g mask="url(#mask3)">
<circle cx="389.814" cy="1400.16" r="46.6582" transform="rotate(-15 389.814 1400.16)" fill="#FED078"/>
<circle cx="389.814" cy="1400.16" r="44.6582" transform="rotate(-15 389.814 1400.16)" stroke="black" stroke-opacity="0.2" stroke-width="4"/>
<path d="M397.146 1398.49L387.113 1408.52L383.441 1394.82L397.146 1398.49Z" fill="white"/>
</g>
</g>
<mask id="mask4" mask-type="alpha" maskUnits="userSpaceOnUse" x="172" y="1193" width="48" height="48">
<path d="M200.797 1235.52C211.153 1232.75 217.298 1222.1 214.523 1211.75C211.748 1201.39 201.105 1195.25 190.75 1198.02C180.394 1200.8 174.249 1211.44 177.024 1221.8C179.799 1232.15 190.442 1238.3 200.797 1235.52Z" fill="white"/>
</mask>
<g mask="url(#mask4)">
<path d="M200.797 1235.52C211.153 1232.75 217.298 1222.1 214.523 1211.75C211.748 1201.39 201.105 1195.25 190.75 1198.02C180.394 1200.8 174.249 1211.44 177.024 1221.8C179.799 1232.15 190.442 1238.3 200.797 1235.52Z" fill="#D7EDB2"/>
<path fill-rule="evenodd" clip-rule="evenodd" d="M185.599 1215.75L187.96 1215.12L187.132 1212.03L184.771 1212.66L185.599 1215.75Z" fill="#332612"/>
<path fill-rule="evenodd" clip-rule="evenodd" d="M201.893 1211.39L204.254 1210.75L203.426 1207.66L201.064 1208.3L201.893 1211.39Z" fill="#332612"/>
<path fill-rule="evenodd" clip-rule="evenodd" d="M230.936 1271.39L195.278 1280.95C193.72 1281.36 192.155 1280.63 191.802 1279.31L181.119 1233.77L219.847 1223.4L233.127 1268.24C233.481 1269.55 232.495 1270.97 230.936 1271.39Z" fill="#A6D753"/>
<path fill-rule="evenodd" clip-rule="evenodd" d="M201.068 1235.05L200.778 1235.13C198.13 1235.84 195.379 1234.24 194.665 1231.57L192.549 1223.68C192.141 1222.15 193.045 1220.57 194.558 1220.17L198.974 1218.99C200.486 1218.58 202.058 1219.5 202.467 1221.02L204.583 1228.92C205.297 1231.58 203.715 1234.34 201.068 1235.05Z" fill="#E39E8F"/>
<path fill-rule="evenodd" clip-rule="evenodd" d="M201.688 1226.49L195.619 1228.11C192.536 1228.94 189.332 1227.08 188.501 1223.97L185.47 1212.66C184.639 1209.56 186.481 1206.34 189.564 1205.52L195.633 1203.89C198.716 1203.06 201.919 1204.93 202.751 1208.03L205.781 1219.34C206.613 1222.44 204.771 1225.66 201.688 1226.49Z" fill="#F9BFB2"/>
<path fill-rule="evenodd" clip-rule="evenodd" d="M187.778 1218.74L186.847 1218.99C186.078 1219.19 185.279 1218.73 185.072 1217.95L184.538 1215.96C184.331 1215.19 184.79 1214.39 185.559 1214.18L186.49 1213.93C187.259 1213.72 188.058 1214.19 188.266 1214.96L188.799 1216.95C189.006 1217.73 188.547 1218.53 187.778 1218.74Z" fill="#F9BFB2"/>
<path fill-rule="evenodd" clip-rule="evenodd" d="M205.059 1214.11L204.128 1214.36C203.359 1214.56 202.56 1214.1 202.353 1213.32L201.82 1211.33C201.612 1210.56 202.072 1209.76 202.84 1209.55L203.772 1209.3C204.541 1209.09 205.339 1209.56 205.547 1210.33L206.08 1212.32C206.288 1213.1 205.828 1213.9 205.059 1214.11Z" fill="#F9BFB2"/>
<path fill-rule="evenodd" clip-rule="evenodd" d="M204.225 1227.58L204.544 1228.77C205.28 1231.52 203.65 1234.36 200.923 1235.09C198.195 1235.82 195.362 1234.17 194.626 1231.43L194.307 1230.24L192.654 1230.68L192.973 1231.87C193.957 1235.54 197.723 1237.73 201.369 1236.76C205.015 1235.78 207.18 1232 206.197 1228.33L205.878 1227.14L204.225 1227.58Z" fill="#332612"/>
<path fill-rule="evenodd" clip-rule="evenodd" d="M193.546 1216.18C193.671 1216.64 193.397 1217.12 192.934 1217.25C192.472 1217.37 191.995 1217.09 191.871 1216.63C191.746 1216.16 192.02 1215.68 192.482 1215.56C192.945 1215.44 193.421 1215.71 193.546 1216.18Z" fill="#1D1F22"/>
<path d="M189.493 1215.54C189.647 1214.19 191.184 1213.26 192.93 1213.47" stroke="#332612" stroke-width="1.27702" stroke-linecap="round" stroke-linejoin="round"/>
<path fill-rule="evenodd" clip-rule="evenodd" d="M197.821 1215.03C197.946 1215.5 198.422 1215.78 198.885 1215.65C199.347 1215.53 199.621 1215.05 199.496 1214.58C199.372 1214.12 198.895 1213.84 198.433 1213.97C197.97 1214.09 197.696 1214.57 197.821 1215.03Z" fill="#1D1F22"/>
<path d="M201.01 1212.45C200.202 1211.36 198.408 1211.33 196.999 1212.38" stroke="#332612" stroke-width="1.27702" stroke-linecap="round" stroke-linejoin="round"/>
<path fill-rule="evenodd" clip-rule="evenodd" d="M203.762 1214.45C204.536 1217.34 202.951 1220.3 200.24 1221.03L194.161 1222.66C191.45 1223.39 188.597 1221.61 187.822 1218.72L187.661 1218.12C187.61 1217.93 187.418 1217.81 187.233 1217.86C187.047 1217.91 186.939 1218.11 186.99 1218.3L188.684 1224.62C189.459 1227.51 192.312 1229.29 195.023 1228.56L195.527 1228.61C198.009 1228.84 200.482 1228.11 202.443 1226.57C205.155 1225.84 206.74 1222.88 205.965 1219.99L204.271 1213.67C204.22 1213.48 204.028 1213.36 203.843 1213.41C203.657 1213.46 203.549 1213.66 203.601 1213.85L203.762 1214.45Z" fill="#332612"/>
<path fill-rule="evenodd" clip-rule="evenodd" d="M201.158 1223.05L194.665 1224.79C193.593 1225.08 192.48 1224.43 192.191 1223.35L192.159 1223.23C191.87 1222.15 192.51 1221.04 193.582 1220.75L200.075 1219.01C201.147 1218.72 202.26 1219.37 202.549 1220.45L202.581 1220.57C202.87 1221.65 202.23 1222.76 201.158 1223.05Z" fill="#332612"/>
<path fill-rule="evenodd" clip-rule="evenodd" d="M194.513 1222.32L200.004 1220.6C200.285 1220.51 200.561 1220.75 200.513 1221.04L200.513 1221.04C200.317 1222.25 199.534 1223.27 198.427 1223.76C197.173 1224.33 195.708 1224.12 194.649 1223.23L194.38 1223.01C194.138 1222.81 194.214 1222.42 194.513 1222.32Z" fill="white"/>
<path fill-rule="evenodd" clip-rule="evenodd" d="M197.593 1220.24L196.33 1220.58C195.924 1220.69 195.503 1220.44 195.394 1220.03L194.631 1217.19C194.521 1216.78 194.763 1216.35 195.169 1216.25L196.432 1215.91C196.838 1215.8 197.259 1216.04 197.369 1216.45L198.132 1219.3C198.241 1219.71 197.999 1220.13 197.593 1220.24Z" fill="#E39E8F"/>
<path fill-rule="evenodd" clip-rule="evenodd" d="M198.285 1219.21L195.216 1220.03C195.092 1220.07 194.963 1219.99 194.929 1219.87L194.84 1219.53C194.807 1219.41 194.881 1219.28 195.005 1219.25L198.074 1218.42C198.198 1218.39 198.327 1218.46 198.361 1218.59L198.45 1218.92C198.484 1219.05 198.409 1219.18 198.285 1219.21Z" fill="#E39E8F"/>
<path fill-rule="evenodd" clip-rule="evenodd" d="M203.015 1206.27L203.825 1209.29L202.444 1209.66L202.074 1208.27C201.882 1207.56 201.262 1207.09 200.698 1207.25L193.115 1209.28L192.603 1209.38C192.436 1209.41 192.267 1209.43 192.097 1209.44C191.022 1209.48 189.514 1209.53 188.82 1208.56C188.819 1208.57 188.818 1208.57 188.817 1208.58C188.817 1208.58 185.36 1209.36 186.131 1212.25L186.132 1212.25C186.14 1212.35 186.157 1212.44 186.182 1212.53L186.552 1213.91L185.169 1214.28L184.36 1211.26C183.466 1207.93 184.887 1204.62 187.52 1203.91L196.6 1201.48C199.234 1200.77 202.121 1202.93 203.015 1206.27Z" fill="#332612"/>
</g>
<path d="M677 1080.5L594.514 773.443C587.333 746.714 603.232 719.237 629.984 712.142L877.5 646.5" stroke="#956FFF" stroke-width="3" stroke-dasharray="3 10"/>
<g style="mix-blend-mode:multiply" filter="url(#filter2_f)">
<rect x="614.95" y="279.331" width="847" height="667" rx="40" transform="rotate(-15 614.95 279.331)" fill="#99B0C2" fill-opacity="0.38"/>
</g>
<path d="M611.276 277.21C605.558 255.871 618.221 233.937 639.56 228.22L1419.06 19.3528C1440.4 13.6351 1462.33 26.2984 1468.05 47.6371L1625.67 635.886C1631.39 657.224 1618.73 679.158 1597.39 684.876L817.886 893.743C796.548 899.46 774.614 886.797 768.896 865.458L611.276 277.21Z" fill="white"/>
<path d="M611.276 277.21C605.558 255.871 618.221 233.937 639.56 228.22L1419.06 19.3528C1440.4 13.6351 1462.33 26.2984 1468.05 47.6371L1625.67 635.886C1631.39 657.224 1618.73 679.158 1597.39 684.876L817.886 893.743C796.548 899.46 774.614 886.797 768.896 865.458L611.276 277.21Z" fill="url(#paint0_linear)"/>
<rect x="788.452" y="219.794" width="504.444" height="33.3607" rx="10" transform="rotate(-15 788.452 219.794)" fill="#F4F9FE"/>
<circle cx="662.652" cy="270.925" r="4.55922" fill="#FD7A8C"/>
<circle cx="648.01" cy="274.663" r="4.55922" fill="#80EBFF"/>
<circle cx="676.706" cy="266.91" r="4.55922" fill="#FEE895"/>
<path d="M670.974 347.4C668.115 336.731 674.447 325.764 685.116 322.905L886.995 268.812C897.664 265.953 908.631 272.285 911.49 282.954L968.948 497.39C971.806 508.059 965.475 519.026 954.805 521.885L752.927 575.978C742.258 578.837 731.291 572.505 728.432 561.836L670.974 347.4Z" fill="#F4F9FE" fill-opacity="0.5"/>
<mask id="mask5" mask-type="alpha" maskUnits="userSpaceOnUse" x="732" y="503" width="49" height="49">
<path d="M761.435 546.16C771.79 543.386 777.935 532.742 775.161 522.387C772.386 512.032 761.742 505.886 751.387 508.661C741.032 511.436 734.887 522.08 737.662 532.435C740.436 542.79 751.08 548.935 761.435 546.16Z" fill="white"/>
</mask>
<g mask="url(#mask5)">
<path d="M761.435 546.16C771.79 543.386 777.935 532.742 775.161 522.387C772.386 512.032 761.742 505.886 751.387 508.661C741.032 511.436 734.887 522.08 737.662 532.435C740.436 542.79 751.08 548.935 761.435 546.16Z" fill="#ECE5FF"/>
<path fill-rule="evenodd" clip-rule="evenodd" d="M776.258 546.642L749.963 547.255L745.802 525.349L765.79 520.196L776.258 546.642Z" fill="#5A372D"/>
<path fill-rule="evenodd" clip-rule="evenodd" d="M759.019 548.553L766.207 546.627L762.059 531.149L754.872 533.075L759.019 548.553Z" fill="#EDACA2"/>
<path fill-rule="evenodd" clip-rule="evenodd" d="M754.162 516.676L746.35 518.77L748.127 525.403L749.458 530.367C750.115 532.82 751.839 534.843 754.144 535.868L755.762 536.587C758.241 537.689 761.137 536.913 762.732 534.719L763.774 533.287C765.258 531.248 765.74 528.633 765.082 526.181L763.752 521.216L761.975 514.583L754.162 516.676Z" fill="#F9BFB2"/>
<path fill-rule="evenodd" clip-rule="evenodd" d="M764.455 525.09C763.768 525.274 763.053 524.857 762.867 524.162L762.444 522.582C762.257 521.887 762.667 521.168 763.355 520.984C764.042 520.8 764.757 521.218 764.943 521.912L765.367 523.492C765.553 524.187 765.143 524.906 764.455 525.09Z" fill="#F9BFB2"/>
<mask id="mask6" mask-type="alpha" maskUnits="userSpaceOnUse" x="743" y="509" width="24" height="18">
<path d="M743.102 515.239L763.023 509.901L766.07 521.272L746.148 526.61L743.102 515.239Z" fill="white"/>
</mask>
<g mask="url(#mask6)">
<path fill-rule="evenodd" clip-rule="evenodd" d="M748.844 521.825C748.844 521.825 750.606 524.654 764.22 521.006L765.88 520.561C764.302 514.674 758.563 511.096 753.062 512.57C747.561 514.044 744.38 520.012 745.958 525.899C746.022 526.139 746.096 526.372 746.173 526.604L748.297 526.034C748.297 526.034 747.789 524.139 748.844 521.825Z" fill="#5A372D"/>
</g>
<path fill-rule="evenodd" clip-rule="evenodd" d="M754.455 527.939C754.572 528.376 754.317 528.823 753.885 528.938C753.454 529.054 753.009 528.794 752.892 528.358C752.775 527.922 753.03 527.475 753.462 527.359C753.893 527.243 754.338 527.503 754.455 527.939Z" fill="#1D1F22"/>
<path fill-rule="evenodd" clip-rule="evenodd" d="M754.614 526.034L751.802 526.788C751.544 526.857 751.276 526.7 751.206 526.44C751.136 526.179 751.29 525.91 751.548 525.84L754.36 525.087C754.618 525.018 754.886 525.174 754.956 525.435C755.026 525.696 754.872 525.965 754.614 526.034Z" fill="#5A372D"/>
<path fill-rule="evenodd" clip-rule="evenodd" d="M760.86 526.223C760.977 526.659 760.722 527.106 760.291 527.222C759.859 527.337 759.415 527.078 759.298 526.641C759.181 526.205 759.436 525.758 759.868 525.642C760.299 525.527 760.744 525.787 760.86 526.223Z" fill="#1D1F22"/>
<path fill-rule="evenodd" clip-rule="evenodd" d="M761.02 524.318L758.208 525.072C757.95 525.141 757.682 524.984 757.612 524.723C757.542 524.463 757.696 524.193 757.954 524.124L760.766 523.37C761.024 523.301 761.292 523.458 761.362 523.719C761.432 523.979 761.278 524.249 761.02 524.318Z" fill="#5A372D"/>
<path fill-rule="evenodd" clip-rule="evenodd" d="M754.859 540.526L756.57 539.602C758.716 538.443 761.102 537.804 763.54 537.735L765.484 537.68L767.372 545.976L759.501 549.101L754.859 540.526Z" fill="#EDACA2"/>
<path fill-rule="evenodd" clip-rule="evenodd" d="M772.858 537.701L765.325 537.612C763.556 537.584 766.695 543.449 761.852 544.747C756.695 546.128 756.575 539.424 754.964 540.389L748.492 544.264L756.26 584.501L771.513 581.43L786.259 576.463L772.858 537.701Z" fill="#FF9F55"/>
<path fill-rule="evenodd" clip-rule="evenodd" d="M759.25 534.41C758.206 534.789 757.003 534.684 756.015 534.024C755.8 533.881 755.744 533.591 755.889 533.378C756.033 533.164 756.324 533.107 756.539 533.25C757.752 534.061 759.405 533.737 760.224 532.529C760.368 532.315 760.66 532.258 760.874 532.401C761.089 532.545 761.145 532.834 761.001 533.048C760.559 533.698 759.94 534.16 759.25 534.41Z" fill="#BC7A6F"/>
<path fill-rule="evenodd" clip-rule="evenodd" d="M749.456 529.11C748.768 529.294 748.053 528.876 747.867 528.181L747.444 526.602C747.258 525.907 747.668 525.187 748.355 525.003C749.043 524.819 749.758 525.237 749.944 525.932L750.367 527.511C750.553 528.206 750.143 528.925 749.456 529.11Z" fill="#F9BFB2"/>
<path fill-rule="evenodd" clip-rule="evenodd" d="M758.264 530.812L757.471 531.024C756.956 531.162 756.419 530.849 756.28 530.328C756.14 529.807 756.448 529.267 756.963 529.129L757.756 528.916C758.272 528.778 758.808 529.092 758.948 529.613C759.088 530.134 758.78 530.673 758.264 530.812Z" fill="#E39E8F"/>
</g>
<rect x="784.773" y="504.369" width="124" height="10" rx="3" transform="rotate(-15 784.773 504.369)" fill="#D8E1EA"/>
<rect x="789.95" y="523.688" width="81" height="10" rx="3" transform="rotate(-15 789.95 523.688)" fill="#D8E1EA"/>
<path d="M687.982 349.054C686.552 343.719 689.718 338.236 695.053 336.807L884.421 286.066C889.756 284.636 895.239 287.802 896.668 293.137L936.451 441.606L727.764 497.523L687.982 349.054Z" fill="#ECE6FF"/>
<circle cx="811.547" cy="390.762" r="29.5117" transform="rotate(-15 811.547 390.762)" fill="#956FFF"/>
<circle cx="811.547" cy="390.762" r="27.5117" transform="rotate(-15 811.547 390.762)" stroke="black" stroke-opacity="0.1" stroke-width="4"/>
<path d="M818.394 389.117L809.821 397.69L806.683 385.979L818.394 389.117Z" fill="white"/>
<path d="M940.469 275.189C937.611 264.52 943.942 253.553 954.611 250.694L1156.49 196.601C1167.16 193.742 1178.13 200.074 1180.98 210.743L1238.44 425.179C1241.3 435.848 1234.97 446.815 1224.3 449.674L1022.42 503.767C1011.75 506.626 1000.79 500.294 997.927 489.625L940.469 275.189Z" fill="#F4F9FE" fill-opacity="0.5"/>
<path d="M957.488 276.881C956.058 271.547 959.224 266.063 964.559 264.634L1153.93 213.893C1159.26 212.463 1164.74 215.629 1166.17 220.964L1205.96 369.433L997.27 425.35L957.488 276.881Z" fill="#EDFFF4"/>
<circle cx="1081.1" cy="318.146" r="29.5117" transform="rotate(-15 1081.1 318.146)" fill="#74E4A2"/>
<circle cx="1081.1" cy="318.146" r="27.5117" transform="rotate(-15 1081.1 318.146)" stroke="black" stroke-opacity="0.2" stroke-width="4"/>
<path d="M1087.5 316.622L1078.92 325.195L1075.79 313.484L1087.5 316.622Z" fill="white"/>
<rect x="1054.66" y="431.693" width="124" height="10" rx="3" transform="rotate(-15 1054.66 431.693)" fill="#D8E1EA"/>
<rect x="1059.84" y="451.011" width="81" height="10" rx="3" transform="rotate(-15 1059.84 451.011)" fill="#D8E1EA"/>
<mask id="mask7" mask-type="alpha" maskUnits="userSpaceOnUse" x="1001" y="429" width="49" height="49">
<path d="M1030.44 472.161C1040.79 469.386 1046.94 458.742 1044.16 448.387C1041.39 438.032 1030.74 431.887 1020.39 434.661C1010.03 437.436 1003.89 448.08 1006.66 458.435C1009.44 468.79 1020.08 474.935 1030.44 472.161Z" fill="white"/>
</mask>
<g mask="url(#mask7)">
<path d="M1030.44 472.161C1040.79 469.386 1046.94 458.742 1044.16 448.387C1041.39 438.032 1030.74 431.887 1020.39 434.661C1010.03 437.436 1003.89 448.08 1006.66 458.435C1009.44 468.79 1020.08 474.935 1030.44 472.161Z" fill="#D7EDB2"/>
<path fill-rule="evenodd" clip-rule="evenodd" d="M1015.24 452.39L1017.6 451.757L1016.77 448.666L1014.41 449.299L1015.24 452.39Z" fill="#332612"/>
<path fill-rule="evenodd" clip-rule="evenodd" d="M1031.53 448.024L1033.89 447.391L1033.06 444.3L1030.7 444.933L1031.53 448.024Z" fill="#332612"/>
<path fill-rule="evenodd" clip-rule="evenodd" d="M1060.57 508.03L1024.92 517.584C1023.36 518.002 1021.79 517.265 1021.44 515.946L1010.76 470.41L1049.48 460.033L1062.77 504.873C1063.12 506.191 1062.13 507.612 1060.57 508.03Z" fill="#A6D753"/>
<path fill-rule="evenodd" clip-rule="evenodd" d="M1030.71 471.691L1030.42 471.768C1027.77 472.478 1025.02 470.877 1024.3 468.211L1022.19 460.313C1021.78 458.79 1022.68 457.212 1024.2 456.806L1028.61 455.623C1030.12 455.218 1031.7 456.132 1032.1 457.656L1034.22 465.554C1034.93 468.22 1033.35 470.981 1030.71 471.691Z" fill="#E39E8F"/>
<path fill-rule="evenodd" clip-rule="evenodd" d="M1031.33 463.124L1025.26 464.751C1022.17 465.577 1018.97 463.713 1018.14 460.608L1015.11 449.3C1014.28 446.196 1016.12 442.98 1019.2 442.153L1025.27 440.527C1028.35 439.701 1031.56 441.565 1032.39 444.67L1035.42 455.978C1036.25 459.082 1034.41 462.298 1031.33 463.124Z" fill="#F9BFB2"/>
<path fill-rule="evenodd" clip-rule="evenodd" d="M1017.42 455.374L1016.48 455.623C1015.72 455.829 1014.92 455.364 1014.71 454.59L1014.18 452.6C1013.97 451.825 1014.43 451.024 1015.2 450.818L1016.13 450.568C1016.9 450.362 1017.7 450.827 1017.9 451.601L1018.44 453.591C1018.64 454.366 1018.18 455.168 1017.42 455.374Z" fill="#F9BFB2"/>
<path fill-rule="evenodd" clip-rule="evenodd" d="M1034.7 450.743L1033.77 450.993C1033 451.199 1032.2 450.734 1031.99 449.96L1031.46 447.969C1031.25 447.195 1031.71 446.393 1032.48 446.187L1033.41 445.938C1034.18 445.732 1034.98 446.196 1035.18 446.97L1035.72 448.961C1035.93 449.735 1035.47 450.537 1034.7 450.743Z" fill="#F9BFB2"/>
<path fill-rule="evenodd" clip-rule="evenodd" d="M1033.86 464.219L1034.18 465.408C1034.92 468.154 1033.29 470.999 1030.56 471.73C1027.83 472.46 1025 470.811 1024.26 468.065L1023.95 466.876L1022.29 467.319L1022.61 468.508C1023.59 472.179 1027.36 474.371 1031.01 473.394C1034.65 472.417 1036.82 468.636 1035.83 464.965L1035.52 463.776L1033.86 464.219Z" fill="#332612"/>
<path fill-rule="evenodd" clip-rule="evenodd" d="M1023.18 452.816C1023.31 453.282 1023.03 453.76 1022.57 453.884C1022.11 454.008 1021.63 453.731 1021.51 453.265C1021.38 452.799 1021.66 452.321 1022.12 452.197C1022.58 452.073 1023.06 452.35 1023.18 452.816Z" fill="#1D1F22"/>
<path d="M1019.13 452.175C1019.28 450.825 1020.82 449.899 1022.57 450.106" stroke="#332612" stroke-width="1.27702" stroke-linecap="round" stroke-linejoin="round"/>
<path fill-rule="evenodd" clip-rule="evenodd" d="M1027.46 451.671C1027.58 452.137 1028.06 452.414 1028.52 452.29C1028.98 452.166 1029.26 451.688 1029.13 451.222C1029.01 450.756 1028.53 450.479 1028.07 450.603C1027.61 450.727 1027.33 451.205 1027.46 451.671Z" fill="#1D1F22"/>
<path d="M1030.65 449.089C1029.84 447.997 1028.05 447.964 1026.64 449.016" stroke="#332612" stroke-width="1.27702" stroke-linecap="round" stroke-linejoin="round"/>
<path fill-rule="evenodd" clip-rule="evenodd" d="M1033.4 451.09C1034.17 453.981 1032.59 456.941 1029.88 457.667L1023.8 459.296C1021.09 460.023 1018.23 458.252 1017.46 455.361L1017.3 454.759C1017.25 454.567 1017.06 454.451 1016.87 454.501C1016.68 454.55 1016.58 454.746 1016.63 454.939L1018.32 461.261C1019.1 464.152 1021.95 465.923 1024.66 465.196L1025.16 465.243C1027.65 465.476 1030.12 464.748 1032.08 463.208C1034.79 462.482 1036.38 459.522 1035.6 456.63L1033.91 450.308C1033.86 450.116 1033.67 450 1033.48 450.05C1033.3 450.1 1033.19 450.296 1033.24 450.488L1033.4 451.09Z" fill="#332612"/>
<path fill-rule="evenodd" clip-rule="evenodd" d="M1030.8 459.689L1024.3 461.429C1023.23 461.716 1022.12 461.068 1021.83 459.989L1021.8 459.871C1021.51 458.791 1022.15 457.674 1023.22 457.386L1029.71 455.646C1030.78 455.359 1031.9 456.007 1032.19 457.086L1032.22 457.205C1032.51 458.284 1031.87 459.401 1030.8 459.689Z" fill="#332612"/>
<path fill-rule="evenodd" clip-rule="evenodd" d="M1024.15 458.962L1029.64 457.235C1029.92 457.147 1030.2 457.388 1030.15 457.68L1030.15 457.681C1029.96 458.885 1029.17 459.906 1028.06 460.402C1026.81 460.963 1025.35 460.758 1024.29 459.872L1024.02 459.647C1023.78 459.445 1023.85 459.056 1024.15 458.962Z" fill="white"/>
<path fill-rule="evenodd" clip-rule="evenodd" d="M1027.23 456.878L1025.97 457.216C1025.56 457.325 1025.14 457.08 1025.03 456.671L1024.27 453.824C1024.16 453.415 1024.4 452.992 1024.81 452.884L1026.07 452.545C1026.48 452.436 1026.9 452.682 1027.01 453.09L1027.77 455.938C1027.88 456.346 1027.64 456.769 1027.23 456.878Z" fill="#E39E8F"/>
<path fill-rule="evenodd" clip-rule="evenodd" d="M1027.92 455.848L1024.85 456.67C1024.73 456.704 1024.6 456.629 1024.57 456.503L1024.48 456.171C1024.44 456.045 1024.52 455.916 1024.64 455.883L1027.71 455.06C1027.84 455.027 1027.97 455.102 1028 455.227L1028.09 455.56C1028.12 455.685 1028.05 455.815 1027.92 455.848Z" fill="#E39E8F"/>
<path fill-rule="evenodd" clip-rule="evenodd" d="M1032.65 442.903L1033.46 445.923L1032.08 446.293L1031.71 444.911C1031.52 444.194 1030.9 443.732 1030.34 443.883L1022.75 445.915L1022.24 446.017C1022.07 446.051 1021.9 446.07 1021.73 446.077C1020.66 446.12 1019.15 446.162 1018.46 445.198C1018.46 445.203 1018.46 445.209 1018.45 445.218C1018.45 445.218 1015 446.001 1015.77 448.889L1015.77 448.892C1015.78 448.983 1015.79 449.077 1015.82 449.169L1016.19 450.551L1014.81 450.922L1014 447.902C1013.1 444.564 1014.52 441.256 1017.16 440.55L1026.24 438.118C1028.87 437.412 1031.76 439.565 1032.65 442.903Z" fill="#332612"/>
</g>
<path d="M1209.96 202.979C1207.1 192.31 1213.43 181.343 1224.1 178.484L1425.98 124.391C1436.65 121.532 1447.62 127.864 1450.47 138.533L1507.93 352.969C1510.79 363.638 1504.46 374.605 1493.79 377.464L1291.91 431.557C1281.24 434.416 1270.28 428.084 1267.42 417.415L1209.96 202.979Z" fill="#F4F9FE" fill-opacity="0.5"/>
<path d="M1226.98 204.671C1225.55 199.336 1228.71 193.853 1234.05 192.424L1423.42 141.683C1428.75 140.253 1434.24 143.419 1435.66 148.754L1475.45 297.223L1266.76 353.14L1226.98 204.671Z" fill="#FFF5CE"/>
<circle cx="1351.05" cy="245.815" r="29.5117" transform="rotate(-15 1351.05 245.815)" fill="#FED078"/>
<circle cx="1351.05" cy="245.815" r="27.5117" transform="rotate(-15 1351.05 245.815)" stroke="black" stroke-opacity="0.2" stroke-width="4"/>
<path d="M1357.95 244.153L1349.38 252.726L1346.24 241.015L1357.95 244.153Z" fill="white"/>
<rect x="1326.08" y="358.965" width="124" height="10" rx="3" transform="rotate(-15 1326.08 358.965)" fill="#D8E1EA"/>
<rect x="1331.26" y="378.284" width="81" height="10" rx="3" transform="rotate(-15 1331.26 378.284)" fill="#D8E1EA"/>
<path d="M742.406 619.792C739.548 609.123 745.879 598.156 756.548 595.297L958.427 541.204C969.096 538.345 980.063 544.677 982.922 555.346L1040.38 769.781C1043.24 780.451 1036.91 791.418 1026.24 794.276L824.359 848.37C813.69 851.228 802.723 844.897 799.864 834.227L742.406 619.792Z" fill="#F4F9FE" fill-opacity="0.5"/>
<path d="M760.295 620.858C758.865 615.523 762.031 610.039 767.366 608.61L956.734 557.869C962.069 556.44 967.552 559.605 968.981 564.94L1008.76 713.409L800.077 769.327L760.295 620.858Z" fill="#D9F9FF"/>
<mask id="mask8" mask-type="alpha" maskUnits="userSpaceOnUse" x="808" y="773" width="49" height="49">
<path d="M837.435 816.161C847.79 813.386 853.935 802.742 851.161 792.387C848.386 782.032 837.742 775.887 827.387 778.661C817.032 781.436 810.887 792.08 813.662 802.435C816.436 812.79 827.08 818.935 837.435 816.161Z" fill="white"/>
</mask>
<g mask="url(#mask8)">
<path d="M837.435 816.161C847.79 813.386 853.935 802.742 851.161 792.387C848.386 782.032 837.742 775.887 827.387 778.661C817.032 781.436 810.887 792.08 813.662 802.435C816.436 812.79 827.08 818.935 837.435 816.161Z" fill="#AAE1E5"/>
<path fill-rule="evenodd" clip-rule="evenodd" d="M830.273 810.721L840.534 809.152L841.217 810.825L835.751 813.831L829.609 812.079L830.273 810.721Z" fill="#CAD5D8"/>
<path fill-rule="evenodd" clip-rule="evenodd" d="M838.193 820.744C835.886 821.362 833.493 819.984 832.876 817.682L830.53 808.927C829.913 806.624 831.296 804.234 833.604 803.616C835.912 802.997 838.304 804.375 838.922 806.678L841.267 815.433C841.884 817.736 840.501 820.126 838.193 820.744Z" fill="#E39E8F"/>
<path fill-rule="evenodd" clip-rule="evenodd" d="M837.145 808.88L833.171 809.945C830.03 810.787 826.774 808.911 825.934 805.777L823.407 796.349C822.568 793.215 824.45 789.963 827.591 789.121L831.565 788.056C834.706 787.215 837.962 789.09 838.802 792.224L841.328 801.652C842.168 804.786 840.285 808.039 837.145 808.88Z" fill="#F9BFB2"/>
<path fill-rule="evenodd" clip-rule="evenodd" d="M833.934 803.746L833.363 803.898C832.902 804.021 832.425 803.745 832.303 803.285L831.81 801.433C831.688 800.973 831.965 800.496 832.426 800.373L832.997 800.222C833.458 800.099 833.936 800.375 834.058 800.836L834.55 802.687C834.673 803.147 834.396 803.624 833.934 803.746Z" fill="#E39E8F"/>
<path fill-rule="evenodd" clip-rule="evenodd" d="M834.667 802.865L832.29 803.498C832.149 803.535 832.003 803.451 831.965 803.31L831.931 803.181C831.894 803.041 831.978 802.895 832.12 802.857L834.496 802.225C834.637 802.187 834.784 802.272 834.821 802.413L834.855 802.541C834.893 802.682 834.808 802.828 834.667 802.865Z" fill="#E39E8F"/>
<path fill-rule="evenodd" clip-rule="evenodd" d="M827.317 799.906C827.232 799.929 827.14 799.927 827.052 799.896C826.819 799.813 826.697 799.557 826.78 799.324C827.264 797.966 828.765 797.252 830.125 797.733C830.358 797.816 830.48 798.072 830.397 798.305C830.314 798.538 830.058 798.66 829.824 798.577C828.93 798.261 827.943 798.73 827.625 799.623C827.573 799.768 827.455 799.869 827.317 799.906Z" fill="#1D1F22"/>
<path fill-rule="evenodd" clip-rule="evenodd" d="M837.184 797.282C837.046 797.318 836.893 797.289 836.776 797.189C836.056 796.571 834.966 796.655 834.348 797.374C834.187 797.562 833.903 797.584 833.715 797.423C833.527 797.262 833.506 796.979 833.667 796.791C834.609 795.697 836.266 795.571 837.361 796.509C837.549 796.67 837.57 796.953 837.409 797.14C837.347 797.212 837.269 797.259 837.184 797.282Z" fill="#1D1F22"/>
<path fill-rule="evenodd" clip-rule="evenodd" d="M830.093 800.388C830.2 800.786 829.963 801.195 829.564 801.302C829.165 801.409 828.755 801.173 828.649 800.775C828.542 800.377 828.779 799.968 829.178 799.861C829.577 799.754 829.986 799.99 830.093 800.388Z" fill="#1D1F22"/>
<path fill-rule="evenodd" clip-rule="evenodd" d="M836.015 798.801C836.122 799.199 835.885 799.608 835.486 799.715C835.088 799.822 834.678 799.586 834.571 799.188C834.464 798.79 834.701 798.381 835.1 798.274C835.499 798.167 835.909 798.403 836.015 798.801Z" fill="#1D1F22"/>
<mask id="mask9" mask-type="alpha" maskUnits="userSpaceOnUse" x="819" y="779" width="26" height="24">
<path d="M819.431 785.121L839.867 779.645L844.419 796.633L823.983 802.108L819.431 785.121Z" fill="white"/>
</mask>
<g mask="url(#mask9)">
<path fill-rule="evenodd" clip-rule="evenodd" d="M841.471 785.633C840.585 782.326 837.253 780.346 834.028 781.21C833.865 781.253 833.708 781.308 833.552 781.364C834.349 781.854 835.037 782.529 835.554 783.346C834.538 782.835 833.35 782.675 832.178 782.989C832.048 783.024 831.923 783.067 831.798 783.112C832.405 783.486 832.932 783.996 833.338 784.608L830.381 785.4L830.392 785.406C830.314 785.424 830.237 785.434 830.159 785.455L827.24 786.237C823.386 787.27 821.1 791.348 822.159 795.3L823.983 802.108L824.687 800.066C824.687 800.066 822.744 795.299 827.231 794.096C831.902 792.845 831.191 793.976 835.862 792.724L838.126 792.118L839.135 795.886L840.684 796.707L839.369 791.8C841.183 790.323 842.129 788.088 841.471 785.633Z" fill="#1D1F22"/>
</g>
<path fill-rule="evenodd" clip-rule="evenodd" d="M826.644 803.265L826.321 803.351C825.079 803.684 823.79 802.942 823.458 801.702C823.126 800.463 823.871 799.176 825.113 798.843L825.436 798.756L826.644 803.265Z" fill="#F9BFB2"/>
<path fill-rule="evenodd" clip-rule="evenodd" d="M839.74 799.756L838.532 795.247C839.64 794.95 840.789 795.612 841.086 796.718L841.216 797.205C841.513 798.311 840.848 799.459 839.74 799.756Z" fill="#F9BFB2"/>
<path fill-rule="evenodd" clip-rule="evenodd" d="M831.833 805.665L836.092 804.336C836.309 804.268 836.522 804.454 836.485 804.678L836.485 804.679C836.329 805.604 835.719 806.389 834.861 806.77C833.887 807.202 832.753 807.045 831.936 806.365L831.728 806.191C831.542 806.037 831.601 805.737 831.833 805.665Z" fill="white"/>
<path fill-rule="evenodd" clip-rule="evenodd" d="M834.175 816.412L829.219 812.876L830.273 810.721L834.887 813.112L834.175 816.412Z" fill="#E6EBED"/>
<path fill-rule="evenodd" clip-rule="evenodd" d="M838.606 815.949L841.415 811.311L840.533 809.152L837.316 812.742L838.606 815.949Z" fill="#E6EBED"/>
<path fill-rule="evenodd" clip-rule="evenodd" d="M834.714 814.109L836.751 816.446L838.247 812.905L841.71 811.025C841.71 811.025 846.914 824.484 846.625 824.562C846.336 824.639 835.221 826.433 835.221 826.433L827.599 813.726L834.714 814.109Z" fill="white"/>
<path fill-rule="evenodd" clip-rule="evenodd" d="M865.628 837.803C865.885 839.325 865.782 840.885 865.333 842.362L864.235 845.971L863.632 847.943L866.192 854.362L860.863 858.88C857.629 861.624 852.785 862.876 848.981 861.001C847.429 864.429 844.311 866.923 840.584 867.666L832.519 869.15L827.753 849.549L824.635 836.732L824.457 836.935L819.44 817.737C819.66 817.484 819.89 817.243 820.13 817.009L820.891 816.416C823.479 814.403 826.443 812.929 829.61 812.081L848.981 861.001L841.031 810.126L849.946 811.664L851.586 812.009C853.266 812.328 854.895 812.893 856.365 813.76C860.322 816.094 862.726 819.979 864.172 829.132L865.628 837.803Z" fill="#1D1E1E"/>
</g>
<path d="M972.397 577.107C971.993 578.366 970.689 579.119 969.39 578.828L969.203 578.787C960.289 576.87 954.461 575.61 952.107 571.199C951.079 569.264 951 566.886 951.954 564.907C953.74 561.199 957.917 560.037 961.206 561.201C961.843 557.77 964.931 554.723 969.041 555.042C971.232 555.205 973.252 556.462 974.414 558.32C977.068 562.557 975.234 568.241 972.45 576.942L972.397 577.107Z" fill="#EC7965"/>
<path d="M959.529 548.822C959.056 549.239 958.337 549.228 957.877 548.791L957.81 548.729C954.628 545.763 952.549 543.822 952.664 541.439C952.716 540.395 953.265 539.402 954.14 538.825C955.778 537.743 957.773 538.288 958.836 539.57C959.936 538.32 961.946 537.828 963.552 538.963C964.409 539.566 964.929 540.575 964.951 541.62C965.001 544.005 962.86 545.884 959.592 548.767L959.529 548.822Z" fill="#EC7965"/>
<rect x="861.828" y="776.488" width="124" height="10" rx="3" transform="rotate(-15 861.828 776.488)" fill="#D8E1EA"/>
<rect x="867.004" y="795.807" width="81" height="10" rx="3" transform="rotate(-15 867.004 795.807)" fill="#D8E1EA"/>
<circle cx="889.248" cy="660.692" r="29.5117" transform="rotate(-15 889.248 660.692)" fill="#30C9E5"/>
<circle cx="889.248" cy="660.692" r="27.5117" transform="rotate(-15 889.248 660.692)" stroke="black" stroke-opacity="0.2" stroke-width="4"/>
<path d="M896.078 658.968L887.505 667.541L884.367 655.83L896.078 658.968Z" fill="white"/>
<path d="M1013.35 547.192C1010.49 536.523 1016.83 525.556 1027.49 522.697L1229.37 468.604C1240.04 465.745 1251.01 472.077 1253.87 482.746L1311.33 697.182C1314.18 707.851 1307.85 718.818 1297.18 721.677L1095.31 775.77C1084.64 778.629 1073.67 772.297 1070.81 761.628L1013.35 547.192Z" fill="#F4F9FE" fill-opacity="0.5"/>
<mask id="mask10" mask-type="alpha" maskUnits="userSpaceOnUse" x="1074" y="701" width="49" height="49">
<path d="M1103.78 744.116C1093.44 746.981 1082.75 740.929 1079.88 730.598C1077.02 720.268 1083.07 709.571 1093.4 706.706C1103.73 703.841 1114.43 709.893 1117.29 720.224C1120.16 730.554 1114.11 741.251 1103.78 744.116Z" fill="white"/>
</mask>
<g mask="url(#mask10)">
<path d="M1103.78 744.116C1093.44 746.981 1082.75 740.929 1079.88 730.598C1077.02 720.268 1083.07 709.571 1093.4 706.706C1103.73 703.841 1114.43 709.893 1117.29 720.224C1120.16 730.554 1114.11 741.251 1103.78 744.116Z" fill="#FFECEE"/>
<path fill-rule="evenodd" clip-rule="evenodd" d="M1088.14 725.601L1088.64 728.415C1089.16 731.333 1088.6 734.337 1087.07 736.854L1086.26 738.185L1099.19 740.632L1098.76 739.076L1105.9 736.761C1108.95 733.194 1110.02 728.316 1108.75 723.759L1107.5 719.227L1090.46 722.276L1088.14 725.601Z" fill="#CC1127"/>
<path fill-rule="evenodd" clip-rule="evenodd" d="M1099.19 740.632C1100.29 744.585 1098.01 748.667 1094.11 749.75C1090.2 750.834 1086.15 748.507 1085.05 744.554C1083.95 740.601 1086.23 736.519 1090.14 735.435C1094.04 734.352 1098.1 736.679 1099.19 740.632Z" fill="#CC1127"/>
<path fill-rule="evenodd" clip-rule="evenodd" d="M1114.65 736.648L1107.21 736.623C1103.62 736.596 1100.09 737.574 1097.02 739.45L1090.67 743.33L1098.69 782.997L1113.71 779.837L1128.21 774.811L1114.65 736.648Z" fill="#EB65C5"/>
<path fill-rule="evenodd" clip-rule="evenodd" d="M1103.95 741.659L1102.72 742C1101.11 742.445 1099.43 741.48 1098.98 739.854L1097.86 735.808C1097.41 734.182 1098.35 732.487 1099.96 732.042L1101.19 731.701C1102.79 731.255 1104.48 732.221 1104.93 733.847L1106.05 737.892C1106.5 739.518 1105.56 741.213 1103.95 741.659Z" fill="#F9BFB2"/>
<path fill-rule="evenodd" clip-rule="evenodd" d="M1096.02 716.043L1088.33 718.175L1090.14 724.71L1091.5 729.601C1092.17 732.017 1093.89 734.001 1096.17 734.993L1097.77 735.69C1100.23 736.757 1103.08 735.967 1104.63 733.787L1105.65 732.365C1107.09 730.339 1107.54 727.753 1106.87 725.337L1105.52 720.446L1103.7 713.911L1096.02 716.043Z" fill="#F9BFB2"/>
<path fill-rule="evenodd" clip-rule="evenodd" d="M1091.4 728.048C1090.72 728.235 1090.01 727.829 1089.82 727.144L1089.39 725.588C1089.2 724.903 1089.6 724.19 1090.28 724.002C1090.95 723.815 1091.66 724.221 1091.85 724.906L1092.28 726.462C1092.47 727.146 1092.08 727.86 1091.4 728.048Z" fill="#F9BFB2"/>
<path fill-rule="evenodd" clip-rule="evenodd" d="M1106.16 723.955C1105.48 724.142 1104.77 723.736 1104.58 723.051L1104.15 721.495C1103.96 720.81 1104.36 720.097 1105.04 719.909C1105.71 719.722 1106.42 720.128 1106.61 720.813L1107.04 722.369C1107.23 723.053 1106.84 723.767 1106.16 723.955Z" fill="#F9BFB2"/>
<mask id="mask11" mask-type="alpha" maskUnits="userSpaceOnUse" x="1085" y="708" width="23" height="18">
<path d="M1085.01 714.405L1104.61 708.968L1107.72 720.189L1088.12 725.625L1085.01 714.405Z" fill="white"/>
</mask>
<g mask="url(#mask11)">
<path fill-rule="evenodd" clip-rule="evenodd" d="M1097.9 716.861C1097.9 716.861 1099.68 721.645 1105.89 719.924L1107.52 719.471C1105.91 713.67 1100.22 710.185 1094.81 711.686C1089.4 713.187 1086.31 719.106 1087.92 724.907C1087.99 725.143 1088.06 725.373 1088.14 725.601L1089.75 725.154C1089.75 725.154 1099.63 723.085 1097.9 716.861Z" fill="#CC1127"/>
</g>
<path fill-rule="evenodd" clip-rule="evenodd" d="M1092.01 727.877C1092.16 728.393 1091.86 728.925 1091.35 729.066C1090.84 729.208 1090.31 728.904 1090.17 728.389C1090.03 727.873 1090.32 727.341 1090.83 727.199C1091.34 727.058 1091.87 727.361 1092.01 727.877Z" fill="white"/>
<path fill-rule="evenodd" clip-rule="evenodd" d="M1107.39 723.614C1107.53 724.129 1107.23 724.662 1106.73 724.803C1106.22 724.944 1105.69 724.641 1105.54 724.125C1105.4 723.61 1105.7 723.077 1106.21 722.936C1106.72 722.795 1107.25 723.098 1107.39 723.614Z" fill="white"/>
<path fill-rule="evenodd" clip-rule="evenodd" d="M1096.41 727.162C1096.53 727.592 1096.28 728.035 1095.85 728.153C1095.43 728.271 1094.99 728.018 1094.87 727.588C1094.75 727.159 1095 726.715 1095.42 726.597C1095.85 726.479 1096.29 726.732 1096.41 727.162Z" fill="#1D1F22"/>
<path fill-rule="evenodd" clip-rule="evenodd" d="M1096.55 725.28L1093.78 726.047C1093.53 726.117 1093.26 725.965 1093.19 725.708C1093.12 725.452 1093.27 725.184 1093.52 725.114L1096.29 724.346C1096.54 724.276 1096.81 724.428 1096.88 724.685C1096.95 724.942 1096.8 725.209 1096.55 725.28Z" fill="#CF1C30"/>
<path fill-rule="evenodd" clip-rule="evenodd" d="M1102.71 725.414C1102.83 725.844 1102.58 726.287 1102.16 726.405C1101.73 726.523 1101.29 726.27 1101.17 725.84C1101.05 725.41 1101.3 724.967 1101.73 724.849C1102.15 724.731 1102.59 724.984 1102.71 725.414Z" fill="#1D1F22"/>
<path fill-rule="evenodd" clip-rule="evenodd" d="M1102.85 723.532L1100.08 724.299C1099.83 724.369 1099.56 724.217 1099.49 723.96C1099.42 723.703 1099.57 723.436 1099.82 723.366L1102.59 722.598C1102.85 722.528 1103.11 722.68 1103.18 722.937C1103.25 723.194 1103.1 723.461 1102.85 723.532Z" fill="#CF1C30"/>
<path fill-rule="evenodd" clip-rule="evenodd" d="M1100.46 728.452C1100.84 728.908 1100.8 729.629 1100.31 729.961C1100.22 730.023 1100.12 730.071 1100.01 730.102L1099.6 730.215C1099.49 730.246 1099.38 730.258 1099.26 730.251C1098.68 730.218 1098.27 729.62 1098.37 729.032L1098.64 727.277C1098.7 726.952 1099.1 726.84 1099.31 727.091L1100.46 728.452Z" fill="#E39E8F"/>
<path fill-rule="evenodd" clip-rule="evenodd" d="M1100.89 733.513C1099.8 733.816 1098.58 733.605 1097.62 732.837C1097.42 732.67 1097.38 732.366 1097.55 732.157C1097.71 731.948 1098.01 731.914 1098.22 732.081C1099.39 733.024 1101.1 732.829 1102.03 731.648C1102.19 731.439 1102.49 731.404 1102.7 731.571C1102.91 731.738 1102.95 732.043 1102.78 732.251C1102.28 732.888 1101.62 733.313 1100.89 733.513Z" fill="#DA7C68"/>
</g>
<path d="M1030.37 548.884C1028.94 543.55 1032.11 538.066 1037.44 536.637L1226.81 485.896C1232.14 484.466 1237.63 487.632 1239.06 492.967L1278.84 641.436L1070.15 697.354L1030.37 548.884Z" fill="#FFECEF"/>
<circle cx="1153.99" cy="590.149" r="29.5117" transform="rotate(-15 1153.99 590.149)" fill="#FE9CE2"/>
<circle cx="1153.99" cy="590.149" r="27.5117" transform="rotate(-15 1153.99 590.149)" stroke="black" stroke-opacity="0.2" stroke-width="4"/>
<path d="M1160.38 588.625L1151.81 597.198L1148.67 585.487L1160.38 588.625Z" fill="white"/>
<rect x="1127.55" y="703.696" width="124" height="10" rx="3" transform="rotate(-15 1127.55 703.696)" fill="#D8E1EA"/>
<rect x="1132.72" y="723.015" width="81" height="10" rx="3" transform="rotate(-15 1132.72 723.015)" fill="#D8E1EA"/>
<path d="M1284.78 474.464C1281.92 463.795 1288.25 452.828 1298.92 449.969L1500.8 395.876C1511.47 393.017 1522.43 399.349 1525.29 410.018L1582.75 624.454C1585.61 635.123 1579.28 646.09 1568.61 648.949L1366.73 703.042C1356.06 705.901 1345.09 699.569 1342.24 688.9L1284.78 474.464Z" fill="#F4F9FE" fill-opacity="0.5"/>
<rect x="1398.58" y="631.434" width="124" height="10" rx="3" transform="rotate(-15 1398.58 631.434)" fill="#D8E1EA"/>
<rect x="1403.75" y="650.752" width="81" height="10" rx="3" transform="rotate(-15 1403.75 650.752)" fill="#D8E1EA"/>
<mask id="mask12" mask-type="alpha" maskUnits="userSpaceOnUse" x="1345" y="628" width="49" height="49">
<path d="M1374.44 671.161C1384.79 668.386 1390.94 657.742 1388.16 647.387C1385.39 637.032 1374.74 630.887 1364.39 633.661C1354.03 636.436 1347.89 647.08 1350.66 657.435C1353.44 667.79 1364.08 673.935 1374.44 671.161Z" fill="white"/>
</mask>
<g mask="url(#mask12)">
<path d="M1374.44 671.161C1384.79 668.386 1390.94 657.742 1388.16 647.387C1385.39 637.032 1374.74 630.887 1364.39 633.661C1354.03 636.436 1347.89 647.08 1350.66 657.435C1353.44 667.79 1364.08 673.935 1374.44 671.161Z" fill="#DCD4FF"/>
<path fill-rule="evenodd" clip-rule="evenodd" d="M1390.35 660.547L1406.61 701.692L1333.98 705.551L1364.29 670.208L1390.35 660.547Z" fill="#BB8AFF"/>
<path fill-rule="evenodd" clip-rule="evenodd" d="M1376.16 671.459L1377.6 670.824C1379.39 670.028 1380.21 667.912 1379.42 666.12L1376.77 660.148C1375.97 658.356 1373.85 657.541 1372.06 658.336L1370.62 658.971C1368.83 659.767 1368.01 661.883 1368.81 663.675L1371.46 669.647C1372.25 671.439 1374.37 672.254 1376.16 671.459Z" fill="#AA6F55"/>
<path fill-rule="evenodd" clip-rule="evenodd" d="M1371.38 664.4L1373.36 663.87C1376.84 662.936 1378.93 659.325 1378 655.846L1376.24 649.278C1375.31 645.799 1371.69 643.716 1368.21 644.65L1366.23 645.181C1362.74 646.115 1360.65 649.726 1361.59 653.205L1363.34 659.772C1364.28 663.252 1367.89 665.334 1371.38 664.4Z" fill="#BC8264"/>
<path fill-rule="evenodd" clip-rule="evenodd" d="M1377.32 653.891C1378.19 653.658 1378.71 652.758 1378.48 651.89L1378.02 650.169C1377.79 649.301 1376.88 648.782 1376.02 649.015C1375.15 649.248 1374.63 650.148 1374.86 651.016L1375.32 652.737C1375.55 653.605 1376.45 654.124 1377.32 653.891Z" fill="#BC8264"/>
<path fill-rule="evenodd" clip-rule="evenodd" d="M1362.67 657.818C1363.54 657.585 1364.06 656.685 1363.82 655.817L1363.36 654.096C1363.13 653.228 1362.23 652.709 1361.36 652.942C1360.49 653.174 1359.97 654.075 1360.2 654.943L1360.66 656.664C1360.9 657.532 1361.8 658.051 1362.67 657.818Z" fill="#BC8264"/>
<path fill-rule="evenodd" clip-rule="evenodd" d="M1368.7 657.354C1368.95 658.265 1369.79 658.831 1370.58 658.618C1371.37 658.406 1371.82 657.495 1371.58 656.584C1371.33 655.673 1370.49 655.107 1369.7 655.32C1368.9 655.532 1368.46 656.443 1368.7 657.354Z" fill="#AA6F55"/>
<mask id="mask13" mask-type="alpha" maskUnits="userSpaceOnUse" x="1354" y="634" width="27" height="23">
<path d="M1376.14 634.532L1354.3 640.384L1358.63 656.563L1380.47 650.711L1376.14 634.532Z" fill="white"/>
</mask>
<g mask="url(#mask13)">
<path fill-rule="evenodd" clip-rule="evenodd" d="M1357.2 651.205C1356.88 650.002 1357.34 648.775 1358.26 648.057C1357.71 647.668 1357.29 647.091 1357.1 646.388C1356.67 644.79 1357.62 643.147 1359.22 642.718C1359.41 642.667 1359.6 642.636 1359.79 642.623C1359.64 641.185 1360.56 639.811 1362 639.425C1362.39 639.319 1362.79 639.297 1363.17 639.347C1363.19 639.294 1363.21 639.241 1363.23 639.189C1363.23 639.184 1363.24 639.178 1363.24 639.173C1363.26 639.124 1363.28 639.075 1363.31 639.026C1363.31 639.023 1363.31 639.02 1363.31 639.017C1363.39 638.862 1363.48 638.714 1363.58 638.575C1363.59 638.568 1363.59 638.561 1363.6 638.554C1363.63 638.515 1363.66 638.477 1363.69 638.44C1363.69 638.432 1363.7 638.425 1363.7 638.418C1363.74 638.376 1363.78 638.335 1363.81 638.295C1363.81 638.294 1363.82 638.293 1363.82 638.292C1363.86 638.249 1363.9 638.208 1363.94 638.167C1363.94 638.165 1363.95 638.163 1363.95 638.161C1363.99 638.126 1364.03 638.091 1364.07 638.058C1364.08 638.049 1364.09 638.04 1364.1 638.031C1364.13 638.004 1364.16 637.978 1364.2 637.953C1364.21 637.943 1364.22 637.934 1364.24 637.924C1364.27 637.899 1364.31 637.874 1364.35 637.849C1364.36 637.843 1364.37 637.835 1364.38 637.829C1364.43 637.798 1364.47 637.768 1364.52 637.74C1364.53 637.738 1364.53 637.735 1364.54 637.732C1364.58 637.708 1364.63 637.685 1364.67 637.662C1364.69 637.654 1364.71 637.647 1364.72 637.639C1364.76 637.623 1364.79 637.607 1364.83 637.591C1364.85 637.583 1364.87 637.576 1364.89 637.569C1364.92 637.554 1364.96 637.54 1365 637.527C1365.02 637.52 1365.03 637.514 1365.05 637.509C1365.11 637.49 1365.16 637.473 1365.22 637.458C1365.28 637.443 1365.33 637.43 1365.39 637.418C1365.41 637.414 1365.42 637.411 1365.44 637.408C1365.48 637.4 1365.52 637.393 1365.56 637.388C1365.58 637.385 1365.6 637.382 1365.62 637.38C1365.66 637.374 1365.7 637.37 1365.74 637.367C1365.76 637.365 1365.78 637.363 1365.79 637.362C1365.84 637.359 1365.89 637.357 1365.94 637.356C1365.95 637.356 1365.96 637.355 1365.96 637.355C1366.02 637.354 1366.08 637.356 1366.13 637.358C1366.15 637.359 1366.16 637.36 1366.17 637.361C1366.21 637.363 1366.26 637.366 1366.3 637.371C1366.32 637.373 1366.33 637.375 1366.35 637.376C1366.39 637.381 1366.43 637.387 1366.48 637.394C1366.49 637.396 1366.5 637.398 1366.52 637.401C1366.57 637.41 1366.62 637.42 1366.67 637.432C1366.67 637.433 1366.68 637.433 1366.68 637.434C1366.74 637.447 1366.79 637.463 1366.85 637.479C1366.85 637.48 1366.85 637.48 1366.85 637.481C1366.91 637.496 1366.96 637.514 1367.01 637.532C1367.02 637.535 1367.03 637.539 1367.04 637.542C1367.08 637.559 1367.13 637.577 1367.17 637.596C1367.18 637.599 1367.19 637.603 1367.2 637.606C1367.35 637.675 1367.51 637.758 1367.65 637.853C1367.65 637.855 1367.66 637.857 1367.66 637.859C1367.71 637.889 1367.75 637.92 1367.79 637.952C1367.8 637.956 1367.8 637.96 1367.81 637.963C1367.85 637.997 1367.9 638.032 1367.94 638.069C1368.24 637.836 1368.6 637.657 1368.99 637.552C1370.43 637.165 1371.91 637.898 1372.5 639.217C1372.67 639.134 1372.85 639.066 1373.04 639.015C1374.64 638.587 1376.29 639.534 1376.72 641.132C1376.9 641.835 1376.82 642.547 1376.54 643.16C1377.7 643.317 1378.72 644.151 1379.04 645.353C1379.32 646.395 1379.01 647.455 1378.32 648.186L1378.32 648.186C1378.32 648.186 1378.76 648.782 1378.77 650.057C1378.77 651.331 1376.9 651.662 1376.9 651.662C1376.9 651.662 1376.22 649.125 1376.21 649.125L1376.21 649.125C1374.99 649.155 1373.85 648.431 1373.37 647.284C1373.01 647.631 1372.57 647.894 1372.05 648.032C1371.34 648.222 1370.62 648.141 1370 647.852C1369.98 647.883 1369.96 647.913 1369.94 647.944C1369.93 647.949 1369.93 647.955 1369.92 647.96C1369.9 647.988 1369.88 648.015 1369.86 648.043C1369.85 648.05 1369.85 648.058 1369.84 648.065C1369.82 648.091 1369.8 648.116 1369.77 648.141C1369.77 648.149 1369.76 648.158 1369.75 648.166C1369.73 648.19 1369.71 648.214 1369.68 648.238C1369.68 648.246 1369.67 648.254 1369.66 648.261C1369.64 648.285 1369.61 648.309 1369.59 648.331C1369.58 648.338 1369.57 648.344 1369.57 648.351C1369.48 648.427 1369.39 648.499 1369.3 648.566C1369.29 648.571 1369.29 648.576 1369.28 648.581C1369.26 648.597 1369.24 648.612 1369.21 648.627C1369.2 648.638 1369.18 648.649 1369.16 648.66C1369.14 648.673 1369.12 648.685 1369.1 648.698C1369.08 648.71 1369.06 648.722 1369.04 648.733C1369.02 648.745 1369 648.755 1368.98 648.767C1368.96 648.778 1368.94 648.79 1368.92 648.801C1368.9 648.811 1368.88 648.821 1368.86 648.831C1368.84 648.842 1368.81 648.853 1368.79 648.864C1368.77 648.873 1368.75 648.881 1368.73 648.89C1368.7 648.901 1368.68 648.911 1368.65 648.921C1368.63 648.929 1368.62 648.936 1368.6 648.943C1368.57 648.954 1368.54 648.965 1368.51 648.975C1368.49 648.98 1368.48 648.986 1368.46 648.991C1368.41 649.006 1368.37 649.019 1368.32 649.032C1368.27 649.045 1368.23 649.056 1368.18 649.066C1368.16 649.07 1368.15 649.073 1368.13 649.076C1368.1 649.082 1368.07 649.088 1368.04 649.094C1368.02 649.097 1368 649.1 1367.98 649.102C1367.95 649.106 1367.92 649.11 1367.89 649.114C1367.87 649.116 1367.85 649.118 1367.83 649.12C1367.8 649.123 1367.78 649.125 1367.75 649.127C1367.73 649.129 1367.71 649.13 1367.69 649.131C1367.66 649.132 1367.64 649.133 1367.61 649.134C1367.59 649.134 1367.57 649.135 1367.54 649.135C1367.52 649.135 1367.5 649.134 1367.48 649.134C1367.45 649.133 1367.43 649.133 1367.4 649.132C1367.38 649.131 1367.36 649.129 1367.34 649.128C1367.32 649.126 1367.29 649.125 1367.26 649.122C1367.25 649.121 1367.25 649.12 1367.24 649.119C1367.12 649.108 1367.01 649.089 1366.9 649.065C1366.89 649.063 1366.88 649.061 1366.87 649.059C1366.84 649.052 1366.81 649.043 1366.77 649.034C1366.76 649.032 1366.75 649.029 1366.74 649.026C1366.71 649.017 1366.68 649.008 1366.65 648.998C1366.64 648.994 1366.63 648.991 1366.62 648.988C1366.58 648.977 1366.55 648.966 1366.52 648.955C1366.51 648.951 1366.5 648.948 1366.49 648.945C1366.46 648.932 1366.43 648.919 1366.39 648.906C1366.39 648.903 1366.38 648.901 1366.38 648.898C1366.34 648.883 1366.31 648.868 1366.27 648.852C1365.88 649.411 1365.3 649.842 1364.59 650.032C1364.07 650.17 1363.55 650.165 1363.07 650.043C1363.23 651.274 1362.61 652.471 1361.54 653.057L1361.54 653.057C1361.53 653.062 1362.21 655.599 1362.21 655.599C1362.21 655.599 1360.42 656.246 1359.79 655.142C1359.15 654.038 1359.24 653.299 1359.24 653.299L1359.24 653.299C1358.27 653.011 1357.48 652.246 1357.2 651.205Z" fill="#5A372D"/>
</g>
<path fill-rule="evenodd" clip-rule="evenodd" d="M1370.94 651.912L1373.53 651.219C1373.76 651.156 1373.91 650.91 1373.84 650.673C1373.78 650.437 1373.53 650.295 1373.3 650.359L1370.71 651.052C1370.47 651.115 1370.33 651.361 1370.39 651.597C1370.46 651.834 1370.7 651.976 1370.94 651.912Z" fill="#623D33"/>
<path fill-rule="evenodd" clip-rule="evenodd" d="M1364.62 653.606L1367.2 652.913C1367.44 652.85 1367.58 652.604 1367.52 652.367C1367.46 652.131 1367.21 651.989 1366.97 652.053L1364.39 652.745C1364.15 652.809 1364.01 653.055 1364.07 653.291C1364.14 653.528 1364.38 653.67 1364.62 653.606Z" fill="#623D33"/>
<path fill-rule="evenodd" clip-rule="evenodd" d="M1372.3 652.342C1373.33 652.068 1374.38 652.675 1374.65 653.694C1374.92 654.712 1374.32 655.764 1373.3 656.037C1372.27 656.311 1371.22 655.704 1370.95 654.685C1370.68 653.667 1371.28 652.615 1372.3 652.342ZM1373.53 656.898C1375.02 656.497 1375.91 654.956 1375.51 653.463C1375.11 651.969 1373.57 651.08 1372.07 651.481C1370.58 651.882 1369.69 653.423 1370.09 654.916C1370.49 656.41 1372.03 657.299 1373.53 656.898Z" fill="#D5B6FF"/>
<path fill-rule="evenodd" clip-rule="evenodd" d="M1366.13 654.133C1367.15 653.859 1368.2 654.466 1368.47 655.485C1368.75 656.503 1368.14 657.555 1367.12 657.828C1366.1 658.102 1365.04 657.495 1364.77 656.476C1364.5 655.458 1365.11 654.406 1366.13 654.133ZM1367.35 658.689C1368.84 658.288 1369.74 656.747 1369.34 655.254C1368.93 653.76 1367.39 652.871 1365.9 653.272C1364.4 653.673 1363.51 655.214 1363.91 656.707C1364.31 658.201 1365.85 659.09 1367.35 658.689Z" fill="#D5B6FF"/>
<path fill-rule="evenodd" clip-rule="evenodd" d="M1370.44 655.359L1370.67 654.497L1370.56 654.469C1369.83 654.277 1369.07 654.51 1368.57 655.075L1369.24 655.663C1369.51 655.353 1369.93 655.226 1370.33 655.33L1370.44 655.359Z" fill="#D5B6FF"/>
<path fill-rule="evenodd" clip-rule="evenodd" d="M1372.1 654.522C1372.21 654.918 1372.61 655.153 1373.01 655.046C1373.41 654.94 1373.64 654.533 1373.54 654.137C1373.43 653.74 1373.02 653.506 1372.63 653.612C1372.23 653.718 1371.99 654.125 1372.1 654.522Z" fill="#1D1F22"/>
<path fill-rule="evenodd" clip-rule="evenodd" d="M1366.07 656.138C1366.17 656.535 1366.58 656.769 1366.98 656.663C1367.37 656.557 1367.61 656.15 1367.5 655.754C1367.4 655.357 1366.99 655.123 1366.59 655.229C1366.2 655.335 1365.96 655.742 1366.07 656.138Z" fill="#1D1F22"/>
<path d="M1374.02 659.388C1374.02 659.388 1373.31 660.807 1369.73 661.767" stroke="#623D33" stroke-width="1.27702" stroke-linecap="round" stroke-linejoin="round"/>
</g>
<path d="M1301.78 476.118C1300.36 470.784 1303.52 465.3 1308.86 463.871L1498.22 413.13C1503.56 411.7 1509.04 414.866 1510.47 420.201L1550.25 568.67L1341.57 624.587L1301.78 476.118Z" fill="#ECE6FF"/>
<circle cx="1425.35" cy="517.826" r="29.5117" transform="rotate(-15 1425.35 517.826)" fill="#956FFF"/>
<circle cx="1425.35" cy="517.826" r="27.5117" transform="rotate(-15 1425.35 517.826)" stroke="black" stroke-opacity="0.1" stroke-width="4"/>
<path d="M1432.2 516.181L1423.62 524.754L1420.49 513.043L1432.2 516.181Z" fill="white"/>
<mask id="mask14" mask-type="alpha" maskUnits="userSpaceOnUse" x="1272" y="355" width="49" height="49">
<path d="M1301.44 398.161C1311.79 395.386 1317.94 384.742 1315.16 374.387C1312.39 364.032 1301.74 357.887 1291.39 360.661C1281.03 363.436 1274.89 374.08 1277.66 384.435C1280.44 394.79 1291.08 400.935 1301.44 398.161Z" fill="white"/>
</mask>
<g mask="url(#mask14)">
<path d="M1301.44 398.161C1311.79 395.386 1317.94 384.742 1315.16 374.387C1312.39 364.032 1301.74 357.887 1291.39 360.661C1281.03 363.436 1274.89 374.08 1277.66 384.435C1280.44 394.79 1291.08 400.935 1301.44 398.161Z" fill="#FFE48E"/>
<path fill-rule="evenodd" clip-rule="evenodd" d="M1312.47 389.874L1304.99 389.798C1301.36 389.747 1297.8 390.702 1294.69 392.558L1288.25 396.397L1295.9 436.143L1311.06 433.083L1325.72 428.152L1312.47 389.874Z" fill="#FED45B"/>
<path fill-rule="evenodd" clip-rule="evenodd" d="M1285.89 378.64L1286.36 381.459C1286.86 384.383 1286.26 387.384 1284.69 389.893L1283.87 391.219L1296.86 393.755L1296.45 392.195L1303.66 389.927C1306.77 386.379 1307.9 381.505 1306.67 376.937L1305.46 372.393L1288.26 375.328L1285.89 378.64Z" fill="#1D1F22"/>
<path fill-rule="evenodd" clip-rule="evenodd" d="M1296.86 393.755C1297.93 397.718 1295.59 401.787 1291.64 402.844C1287.7 403.902 1283.64 401.546 1282.57 397.584C1281.51 393.621 1283.85 389.551 1287.8 388.494C1291.74 387.436 1295.8 389.792 1296.86 393.755Z" fill="#1D1F22"/>
<path fill-rule="evenodd" clip-rule="evenodd" d="M1301.64 394.815L1300.4 395.148C1298.78 395.583 1297.09 394.605 1296.66 392.975L1295.57 388.919C1295.13 387.289 1296.1 385.599 1297.73 385.165L1298.97 384.832C1300.59 384.397 1302.28 385.375 1302.71 387.005L1303.8 391.06C1304.24 392.69 1303.27 394.38 1301.64 394.815Z" fill="#B76E5A"/>
<path fill-rule="evenodd" clip-rule="evenodd" d="M1293.93 369.129L1286.16 371.21L1287.92 377.762L1289.23 382.665C1289.88 385.087 1291.59 387.084 1293.88 388.092L1295.49 388.8C1297.95 389.885 1300.83 389.113 1302.41 386.943L1303.45 385.527C1304.93 383.509 1305.41 380.925 1304.76 378.503L1303.45 373.6L1301.69 367.048L1293.93 369.129Z" fill="#C57E68"/>
<path fill-rule="evenodd" clip-rule="evenodd" d="M1289.15 381.11C1288.46 381.293 1287.75 380.881 1287.57 380.195L1287.15 378.635C1286.97 377.949 1287.38 377.237 1288.06 377.054C1288.74 376.871 1289.45 377.283 1289.64 377.969L1290.06 379.529C1290.24 380.215 1289.83 380.927 1289.15 381.11Z" fill="#C57E68"/>
<path fill-rule="evenodd" clip-rule="evenodd" d="M1304.06 377.115C1303.38 377.298 1302.67 376.886 1302.48 376.2L1302.06 374.64C1301.88 373.953 1302.29 373.242 1302.97 373.059C1303.66 372.876 1304.37 373.287 1304.55 373.974L1304.97 375.534C1305.15 376.22 1304.74 376.931 1304.06 377.115Z" fill="#C57E68"/>
<path fill-rule="evenodd" clip-rule="evenodd" d="M1295.82 369.961C1295.82 369.961 1297.56 374.76 1303.83 373.08L1305.48 372.637C1303.92 366.822 1298.23 363.296 1292.76 364.762C1287.29 366.227 1284.12 372.129 1285.68 377.944C1285.74 378.18 1285.81 378.411 1285.89 378.639L1287.52 378.203C1287.52 378.203 1297.49 376.2 1295.82 369.961Z" fill="#1D1F22"/>
<path fill-rule="evenodd" clip-rule="evenodd" d="M1289.77 380.944C1289.91 381.461 1289.6 381.991 1289.09 382.129C1288.57 382.267 1288.04 381.96 1287.91 381.443C1287.77 380.926 1288.07 380.395 1288.59 380.257C1289.1 380.119 1289.63 380.427 1289.77 380.944Z" fill="white"/>
<path fill-rule="evenodd" clip-rule="evenodd" d="M1305.3 376.782C1305.44 377.299 1305.13 377.829 1304.62 377.967C1304.11 378.105 1303.58 377.798 1303.44 377.281C1303.3 376.764 1303.6 376.233 1304.12 376.096C1304.63 375.958 1305.16 376.265 1305.3 376.782Z" fill="white"/>
<path fill-rule="evenodd" clip-rule="evenodd" d="M1294.51 380.174C1294.63 380.605 1294.37 381.047 1293.94 381.162C1293.51 381.277 1293.07 381.021 1292.96 380.59C1292.84 380.16 1293.1 379.717 1293.53 379.602C1293.95 379.488 1294.4 379.743 1294.51 380.174Z" fill="#1D1F22"/>
<path fill-rule="evenodd" clip-rule="evenodd" d="M1294.32 377.924L1291.87 379.462C1291.64 379.603 1291.34 379.533 1291.2 379.307C1291.06 379.082 1291.13 378.781 1291.36 378.64L1293.81 377.102C1294.03 376.961 1294.33 377.03 1294.47 377.256C1294.62 377.482 1294.55 377.782 1294.32 377.924Z" fill="#1D1F22"/>
<path fill-rule="evenodd" clip-rule="evenodd" d="M1300.26 378.634C1300.37 379.065 1300.12 379.508 1299.69 379.623C1299.26 379.737 1298.82 379.482 1298.7 379.051C1298.59 378.62 1298.84 378.178 1299.27 378.063C1299.7 377.948 1300.14 378.204 1300.26 378.634Z" fill="#1D1F22"/>
<path fill-rule="evenodd" clip-rule="evenodd" d="M1300.66 377.034L1297.77 377.085C1297.5 377.09 1297.28 376.876 1297.28 376.609C1297.27 376.343 1297.49 376.121 1297.75 376.117L1300.65 376.066C1300.91 376.061 1301.13 376.275 1301.14 376.542C1301.14 376.808 1300.93 377.03 1300.66 377.034Z" fill="#1D1F22"/>
<path fill-rule="evenodd" clip-rule="evenodd" d="M1298.27 381.576C1298.65 382.035 1298.6 382.756 1298.11 383.085C1298.01 383.146 1297.91 383.194 1297.8 383.224L1297.38 383.334C1297.27 383.365 1297.16 383.376 1297.05 383.368C1296.45 383.331 1296.05 382.73 1296.15 382.142L1296.45 380.388C1296.51 380.063 1296.92 379.953 1297.13 380.207L1298.27 381.576Z" fill="#B76E5A"/>
<path fill-rule="evenodd" clip-rule="evenodd" d="M1296.18 385.167L1300.21 383.908C1300.42 383.843 1300.62 384.02 1300.59 384.234L1300.59 384.235C1300.44 385.115 1299.86 385.862 1299.05 386.224C1298.13 386.634 1297.06 386.482 1296.28 385.833L1296.08 385.668C1295.91 385.52 1295.96 385.235 1296.18 385.167Z" fill="white"/>
</g>
<g filter="url(#filter3_f)">
<circle cx="652.669" cy="1036.19" r="60" fill="#99B0C2" fill-opacity="0.38"/>
</g>
<circle cx="665.669" cy="1024.19" r="71" fill="white"/>
<path fill-rule="evenodd" clip-rule="evenodd" d="M653.059 1007.75V1021.67H640.507C640.284 1021.67 640.094 1021.47 640.094 1021.25C640.094 1021.12 640.126 1021.02 640.221 1020.95L653.059 1007.75Z" fill="#D1C7FF"/>
<path fill-rule="evenodd" clip-rule="evenodd" d="M667.071 1048.87V1035.98H680.639L667.802 1049.16C667.643 1049.32 667.357 1049.32 667.198 1049.16C667.103 1049.09 667.071 1048.96 667.071 1048.87Z" fill="#D1C7FF"/>
<path fill-rule="evenodd" clip-rule="evenodd" d="M652.67 1019.19H669.168C669.438 1019.19 669.67 1019.42 669.67 1019.69V1036.19H653.713C653.134 1036.19 652.67 1035.73 652.67 1035.15V1019.19Z" fill="#D1C7FF"/>
<path fill-rule="evenodd" clip-rule="evenodd" d="M653.056 1007.75H679.812C680.288 1007.75 680.669 1008.14 680.669 1008.62V1036.02H667.069V1022.51C667.069 1022.03 666.688 1021.64 666.211 1021.64H653.056V1007.75Z" fill="#8E75FF"/>
<defs>
<filter id="filter0_f" x="844.521" y="879.983" width="408.934" height="423.815" filterUnits="userSpaceOnUse" color-interpolation-filters="sRGB">
<feFlood flood-opacity="0" result="BackgroundImageFix"/>
<feBlend mode="normal" in="SourceGraphic" in2="BackgroundImageFix" result="shape"/>
<feGaussianBlur stdDeviation="25" result="effect1_foregroundBlur"/>
</filter>
<filter id="filter1_f" x="0.97998" y="815.086" width="597.06" height="738.632" filterUnits="userSpaceOnUse" color-interpolation-filters="sRGB">
<feFlood flood-opacity="0" result="BackgroundImageFix"/>
<feBlend mode="normal" in="SourceGraphic" in2="BackgroundImageFix" result="shape"/>
<feGaussianBlur stdDeviation="30" result="effect1_foregroundBlur"/>
</filter>
<filter id="filter2_f" x="554.95" y="0.111206" width="1110.77" height="983.492" filterUnits="userSpaceOnUse" color-interpolation-filters="sRGB">
<feFlood flood-opacity="0" result="BackgroundImageFix"/>
<feBlend mode="normal" in="SourceGraphic" in2="BackgroundImageFix" result="shape"/>
<feGaussianBlur stdDeviation="30" result="effect1_foregroundBlur"/>
</filter>
<filter id="filter3_f" x="562.669" y="946.192" width="180" height="180" filterUnits="userSpaceOnUse" color-interpolation-filters="sRGB">
<feFlood flood-opacity="0" result="BackgroundImageFix"/>
<feBlend mode="normal" in="SourceGraphic" in2="BackgroundImageFix" result="shape"/>
<feGaussianBlur stdDeviation="15" result="effect1_foregroundBlur"/>
</filter>
<linearGradient id="paint0_linear" x1="1010" y1="128.961" x2="1188.33" y2="794.483" gradientUnits="userSpaceOnUse">
<stop stop-color="white"/>
<stop offset="1" stop-color="white" stop-opacity="0"/>
</linearGradient>
</defs>
</svg>
